<svg width="45" height="48" viewBox="0 0 45 48" fill="none" xmlns="http://www.w3.org/2000/svg">
<path d="M2.124 37.8C2.124 38.58 2.712 39.048 3.54 39.048C4.368 39.048 4.956 38.58 4.956 37.8C4.956 37.032 4.368 36.564 3.54 36.564C2.712 36.564 2.124 37.032 2.124 37.8ZM6.48 37.8C6.48 39.276 5.232 40.32 3.54 40.32C1.86 40.32 0.6 39.276 0.6 37.8C0.6 36.348 1.86 35.292 3.54 35.292C5.232 35.292 6.48 36.348 6.48 37.8ZM3.504 43.956V44.676H9.54V45.9H1.932V42.816H7.656V42.156H1.92V40.932H9.216V43.956H3.504ZM9.216 37.104H10.668V38.4H9.216V40.5H7.632V34.98H9.216V37.104ZM18.2271 39.6L18.4071 40.86C16.7631 41.124 15.2871 41.172 13.0911 41.172H12.1191V37.764H15.6351V36.876H12.1071V35.604H17.1951V38.94H13.6791V39.9C15.5031 39.888 16.7871 39.828 18.2271 39.6ZM14.9391 43.272V44.664H19.1871V43.272H14.9391ZM13.3791 45.9V42.024H20.7351V45.9H13.3791ZM19.1391 34.992H20.7351V41.532H19.1391V34.992ZM24.6101 36.204V41.976C25.4741 41.952 26.4221 41.88 27.4781 41.688L27.6101 43.02C26.1701 43.284 24.8981 43.344 23.7941 43.344H23.0261V36.204H24.6101ZM30.5501 34.968H32.0621V46.02H30.5501V40.512H29.5541V45.504H28.0781V35.172H29.5541V39.228H30.5501V34.968ZM35.3492 43.272V42.024H42.8732V46.044H41.2892V43.272H35.3492ZM39.5372 38.868H41.2892V37.728H39.5372C39.5732 37.908 39.5972 38.088 39.5972 38.292C39.5972 38.484 39.5732 38.676 39.5372 38.868ZM36.6812 39.684C37.4972 39.684 38.0972 39.168 38.0972 38.292C38.0972 37.428 37.4972 36.912 36.6812 36.912C35.8772 36.912 35.2772 37.428 35.2772 38.292C35.2772 39.168 35.8772 39.684 36.6812 39.684ZM41.2892 34.98H42.8732V41.52H41.2892V40.128H38.8892C38.3612 40.692 37.5692 41.04 36.6812 41.04C35.0492 41.04 33.7772 39.888 33.7772 38.292C33.7772 36.708 35.0492 35.556 36.6812 35.556C37.5812 35.556 38.3732 35.904 38.9012 36.468H41.2892V34.98Z" fill="#1964F7"/>
<path d="M34.4838 24.0784C34.3908 24.0233 33.6923 23.5739 32.9921 22.2138C31.7069 19.7171 31.437 16.1993 31.437 13.689C31.437 13.6777 31.437 13.6671 31.4362 13.6565C31.4222 10.3382 29.2575 7.47742 26.1597 6.19357V4.23078C26.1597 2.44924 24.5833 1 22.6456 1H22.3543C20.4167 1 18.8402 2.44924 18.8402 4.23078V6.19357C15.7318 7.4812 13.5629 10.3563 13.5629 13.689C13.5629 16.2001 13.293 19.7171 12.0079 22.2138C11.3077 23.5732 10.6091 24.0225 10.5162 24.0784C10.1253 24.2446 9.93198 24.629 10.0217 25.0179C10.1122 25.4114 10.5129 25.6817 10.9498 25.6817H17.7344C17.7723 28.0689 19.895 30 22.5 30C25.1049 30 27.2277 28.0689 27.2655 25.6817H34.0502C34.4871 25.6817 34.8878 25.4106 34.9783 25.0179C35.068 24.629 34.8754 24.2446 34.4838 24.0784ZM20.6915 4.23078C20.6915 3.38797 21.4378 2.70224 22.3543 2.70224H22.6456C23.5622 2.70224 24.3084 3.38797 24.3084 4.23078V5.64227C23.7243 5.53125 23.1195 5.4731 22.5 5.4731C21.8812 5.4731 21.2757 5.53125 20.6923 5.64227L20.6915 4.23078ZM22.5 28.2978C20.9161 28.2978 19.6235 27.1302 19.5857 25.6817H25.4143C25.3764 27.1302 24.0838 28.2978 22.5 28.2978ZM26.2272 23.9802H13.0594C13.219 23.7507 13.3827 23.4916 13.544 23.1986C14.7847 20.9534 15.4134 17.7543 15.4134 13.6898C15.4134 10.098 18.5918 7.17534 22.4991 7.17534C26.4065 7.17534 29.5849 10.098 29.5849 13.692C29.5849 13.7026 29.5849 13.7132 29.5858 13.7238C29.5891 17.7717 30.2185 20.9602 31.4551 23.1986C31.6172 23.4916 31.7801 23.7514 31.9397 23.9802H26.2272Z" fill="#1964F7" stroke="#1964F7" stroke-width="0.3"/>
</svg>
