<svg width="99" height="35" viewBox="0 0 99 35" fill="none" xmlns="http://www.w3.org/2000/svg">
<g id="Group 427320463">
<g id="Group 53">
<path id="Vector" d="M24.3432 13.6657L14.2322 32.5112C13.9587 33.0284 13.585 33.4859 13.133 33.8572C12.681 34.2286 12.1596 34.5063 11.5992 34.6743C11.0389 34.8423 10.4507 34.8972 9.86891 34.8357C9.28715 34.7743 8.72341 34.5978 8.21049 34.3164C6.05551 33.1293 5.25778 30.4006 6.42826 28.2179L16.536 9.37232C16.8096 8.85522 17.1832 8.39768 17.6353 8.02633C18.0873 7.65498 18.6087 7.37724 19.169 7.20925C19.7294 7.04127 20.3176 6.9864 20.8993 7.04784C21.4811 7.10928 22.0448 7.28581 22.5578 7.56714C24.7159 8.75345 25.5136 11.4838 24.3432 13.6657Z" fill="url(#paint0_linear_438_6210)"/>
<path id="Vector_2" d="M2.7903 11.4967C1.69853 11.9361 0.825123 12.7899 0.360964 13.8714C-0.103195 14.9529 -0.12036 16.1742 0.313221 17.2683L6.22893 32.1894C6.44133 32.7347 6.76012 33.2324 7.16673 33.6534C7.57333 34.0743 8.05962 34.4102 8.59728 34.6414C9.13495 34.8726 9.71323 34.9945 10.2985 35C10.8837 35.0055 11.4642 34.8946 12.0061 34.6736C14.283 33.7437 15.3886 31.1226 14.4761 28.8172L8.59521 13.9832C8.37895 13.4378 8.05702 12.9405 7.64794 12.5198C7.23886 12.0992 6.75069 11.7636 6.21148 11.5322C5.67227 11.3008 5.09265 11.1783 4.50594 11.1717C3.91922 11.165 3.33698 11.2744 2.79267 11.4935L2.7903 11.4967Z" fill="url(#paint1_linear_438_6210)"/>
<path id="Vector_3" d="M8.04054 7.9117C8.53263 6.7237 7.96848 5.36172 6.78048 4.86964C5.59248 4.37755 4.2305 4.9417 3.73841 6.1297C3.24632 7.3177 3.81048 8.67968 4.99848 9.17176C6.18648 9.66385 7.54845 9.0997 8.04054 7.9117Z" fill="#5EFF8B"/>
<path id="Vector_4" d="M20.4673 3.93318C20.9594 2.74518 20.3952 1.3832 19.2072 0.89111C18.0192 0.399024 16.6573 0.963177 16.1652 2.15118C15.6731 3.33918 16.2372 4.70116 17.4252 5.19325C18.6132 5.68533 19.9752 5.12118 20.4673 3.93318Z" fill="#00DBFF"/>
</g>
<g id="Group 41">
<path id="Vector_5" d="M34 18.2647V17.152C34 14.4613 35.8925 13.232 38.6658 13.232C41.4391 13.232 43.3329 14.4613 43.3329 17.152V18.2647C43.3329 20.9541 41.4391 22.1664 38.6658 22.1664C35.8925 22.1664 34 20.9541 34 18.2647ZM37.2883 28.5937C35.4286 28.5937 34.9292 27.9463 34.9292 26.1691V24.3919C34.9292 23.2634 35.7156 22.7484 36.633 22.7484C37.5505 22.7484 38.2949 23.2726 38.2949 24.3919V25.6042C38.2949 25.9698 38.3774 26.0197 38.7431 26.0197H47.4443C48.4574 26.0197 48.8401 26.6343 48.8401 27.2988C48.8401 27.9633 48.4469 28.5937 47.4443 28.5937H37.2883ZM40.0773 18.3971V17.0183C40.0773 16.1009 39.4967 15.6737 38.6658 15.6737C37.8349 15.6737 37.2543 16.1048 37.2543 17.0183V18.3971C37.2543 19.3276 37.8362 19.7261 38.6658 19.7261C39.4954 19.7261 40.0773 19.3276 40.0773 18.3971ZM45.0262 14.6435C45.0262 13.5649 45.7746 13 46.654 13C47.5334 13 48.2818 13.5806 48.2818 14.6435V17.152H48.7968C49.8086 17.152 50.1075 17.9384 50.1075 18.5937C50.1075 19.249 49.7916 20.0354 48.7968 20.0354H48.2818V24.7352H45.0262V14.6435Z" fill="white"/>
<path id="Vector_6" d="M53.6959 14.8139V14.7143C53.6959 13.6514 54.5596 13.1533 55.439 13.1704C56.3184 13.1874 57.0498 13.7182 57.0498 14.7143V14.8139C57.0467 15.281 57.0081 15.7471 56.9344 16.2084C59.325 16.5072 60.92 18.0694 60.7536 21.3565H57.515C57.6644 19.8624 57.1664 18.9659 56.1035 18.7497C55.1402 20.477 53.5465 21.4901 51.9685 21.6553C51.1048 21.7549 50.4246 21.2621 50.2909 20.6763C50.076 19.9292 50.4076 19.1979 51.0773 18.9987C52.7667 18.4967 53.6959 17.152 53.6959 14.8139ZM53.7287 28.5976C51.7195 28.5976 51.3538 28 51.3538 26.0734V24.7287C51.3538 22.8021 51.7195 22.2044 53.7287 22.2044H63.0458C65.055 22.2044 65.4207 22.8021 65.4207 24.7287V28.5976H53.7287ZM55.0249 26.2556H62.148V24.9607C62.148 24.595 62.0655 24.5295 61.7339 24.5295H55.0249C54.692 24.5295 54.6317 24.595 54.6317 24.9607V25.8073C54.6251 26.2018 54.692 26.2516 55.0249 26.2516V26.2556ZM61.9829 14.6474C61.9829 13.5688 62.7798 13.0039 63.6592 13.0039C64.5386 13.0039 65.3368 13.5845 65.3368 14.6474V21.5937H61.9829V14.6474Z" fill="white"/>
<path id="Vector_7" d="M80.7655 13.1821C81.413 13.1821 81.683 13.6972 81.683 14.1297C81.683 14.5622 81.3999 15.076 80.7655 15.076H71.1666C70.9346 15.076 70.8507 15.1415 70.8507 15.3577V15.6736H80.6659C81.3304 15.6736 81.5834 16.1048 81.5834 16.5373C81.5834 16.9698 81.3344 17.401 80.6659 17.401H70.8534V17.7155C70.8534 17.9488 70.9372 17.9986 71.1692 17.9986H80.9674C81.6148 17.9986 81.8638 18.5137 81.8638 18.9161C81.8638 19.3813 81.6017 19.8623 80.9674 19.8623H76.2845V20.5596H81.0342C82.0303 20.5596 82.3959 21.1074 82.3959 21.7719C82.3959 22.4364 82.0133 22.9842 81.0342 22.9842H68.2138C67.2334 22.9842 66.8521 22.4364 66.8521 21.7719C66.8521 21.1074 67.2164 20.5596 68.2138 20.5596H72.8966V19.8623H69.4117C68.05 19.8623 67.5519 19.3145 67.5519 18.0524V15.0131C67.5519 13.7339 68.05 13.186 69.4117 13.186L80.7655 13.1821ZM68.8914 26.0026C67.9949 26.0026 67.4969 25.5216 67.4969 24.8073C67.4969 24.093 67.9949 23.6448 68.8914 23.6448H79.3199C81.3304 23.6448 81.6948 24.11 81.6948 26.0366V28.5937H78.3737V26.3656C78.3737 26.1035 78.2741 25.9999 78.0093 25.9999L68.8914 26.0026Z" fill="white"/>
<path id="Vector_8" d="M97.3722 13.1821C98.0196 13.1821 98.2896 13.6972 98.2896 14.1297C98.2896 14.5622 98.0078 15.076 97.3722 15.076H87.7732C87.5412 15.076 87.4574 15.1415 87.4574 15.3577V15.6736H97.2726C97.937 15.6736 98.19 16.1048 98.19 16.5373C98.19 16.9698 97.941 17.401 97.2726 17.401H87.4574V17.7155C87.4574 17.9488 87.5412 17.9986 87.7732 17.9986H97.5714C98.2188 17.9986 98.4678 18.5137 98.4678 18.9161C98.4678 19.3813 98.2057 19.8623 97.5714 19.8623H92.8886V20.5596H97.6382C98.6343 20.5596 99 21.1074 99 21.7719C99 22.4364 98.6173 22.9842 97.6382 22.9842H84.8178C83.8374 22.9842 83.4561 22.4364 83.4561 21.7719C83.4561 21.1074 83.8217 20.5596 84.8178 20.5596H89.5006V19.8623H86.0131C84.6513 19.8623 84.1533 19.3145 84.1533 18.0524V15.0131C84.1533 13.7339 84.6513 13.186 86.0131 13.186L97.3722 13.1821ZM85.498 26.0026C84.6015 26.0026 84.1035 25.5216 84.1035 24.8073C84.1035 24.093 84.6015 23.6448 85.498 23.6448H95.9279C97.937 23.6448 98.3027 24.11 98.3027 26.0366V28.5937H94.9816V26.3656C94.9816 26.1035 94.8807 25.9999 94.6159 25.9999L85.498 26.0026Z" fill="white"/>
</g>
</g>
<defs>
<linearGradient id="paint0_linear_438_6210" x1="22.0291" y1="9.20376" x2="8.21919" y2="33.605" gradientUnits="userSpaceOnUse">
<stop stop-color="#6AFFFF"/>
<stop offset="1" stop-color="#0075E2"/>
</linearGradient>
<linearGradient id="paint1_linear_438_6210" x1="2.90268" y1="12.9774" x2="12.2879" y2="34.027" gradientUnits="userSpaceOnUse">
<stop stop-color="#5EFF8B"/>
<stop offset="1" stop-color="#00DBFF"/>
</linearGradient>
</defs>
</svg>
