<svg width="80" height="80" viewBox="0 0 80 80" fill="none" xmlns="http://www.w3.org/2000/svg">
<g filter="url(#filter0_i_500_2088)">
<circle cx="40" cy="40" r="40" fill="#1964F7"/>
</g>
<g filter="url(#filter1_d_500_2088)">
<path d="M42.2101 23.7646C40.9101 22.7451 39.0897 22.7451 37.7897 23.7646L22.6991 35.5995C21.3449 36.6615 22.0898 38.8503 23.8053 38.8503H25.6001V53.3701C25.6001 55.3748 27.2118 57 29.2 57H36.3998V46.1102C36.3998 44.1055 38.0116 42.4803 39.9998 42.4803C41.988 42.4803 43.5998 44.1055 43.5998 46.1102V57H50.7998C52.788 57 54.3998 55.3748 54.3998 53.3701V38.8503H56.1945C57.9082 38.8503 58.6563 36.6627 57.3007 35.5995L42.2101 23.7646Z" fill="white"/>
</g>
<defs>
<filter id="filter0_i_500_2088" x="0" y="0" width="80" height="84" filterUnits="userSpaceOnUse" color-interpolation-filters="sRGB">
<feFlood flood-opacity="0" result="BackgroundImageFix"/>
<feBlend mode="normal" in="SourceGraphic" in2="BackgroundImageFix" result="shape"/>
<feColorMatrix in="SourceAlpha" type="matrix" values="0 0 0 0 0 0 0 0 0 0 0 0 0 0 0 0 0 0 127 0" result="hardAlpha"/>
<feOffset dy="4"/>
<feGaussianBlur stdDeviation="2"/>
<feComposite in2="hardAlpha" operator="arithmetic" k2="-1" k3="1"/>
<feColorMatrix type="matrix" values="0 0 0 0 0 0 0 0 0 0 0 0 0 0 0 0 0 0 0.25 0"/>
<feBlend mode="normal" in2="shape" result="effect1_innerShadow_500_2088"/>
</filter>
<filter id="filter1_d_500_2088" x="18" y="23" width="44" height="42" filterUnits="userSpaceOnUse" color-interpolation-filters="sRGB">
<feFlood flood-opacity="0" result="BackgroundImageFix"/>
<feColorMatrix in="SourceAlpha" type="matrix" values="0 0 0 0 0 0 0 0 0 0 0 0 0 0 0 0 0 0 127 0" result="hardAlpha"/>
<feOffset dy="4"/>
<feGaussianBlur stdDeviation="2"/>
<feComposite in2="hardAlpha" operator="out"/>
<feColorMatrix type="matrix" values="0 0 0 0 0 0 0 0 0 0 0 0 0 0 0 0 0 0 0.25 0"/>
<feBlend mode="normal" in2="BackgroundImageFix" result="effect1_dropShadow_500_2088"/>
<feBlend mode="normal" in="SourceGraphic" in2="effect1_dropShadow_500_2088" result="shape"/>
</filter>
</defs>
</svg>
