<svg width="56" height="48" viewBox="0 0 56 48" fill="none" xmlns="http://www.w3.org/2000/svg">
<path d="M2.412 37.272V42.096H4.572V37.272H2.412ZM0.852 43.344V36.024H6.132V43.344H0.852ZM10.776 39.144V40.452H9.168V46.032H7.584V34.992H9.168V39.144H10.776ZM19.1271 34.968H20.7111V46.056H19.1271V34.968ZM14.7711 35.748C16.4391 35.748 17.6751 37.26 17.6751 39.684C17.6751 42.12 16.4391 43.644 14.7711 43.644C13.1031 43.644 11.8671 42.12 11.8671 39.684C11.8671 37.26 13.1031 35.748 14.7711 35.748ZM14.7711 37.176C13.9551 37.176 13.3911 38.052 13.3911 39.684C13.3911 41.328 13.9551 42.204 14.7711 42.204C15.5871 42.204 16.1511 41.328 16.1511 39.684C16.1511 38.052 15.5871 37.176 14.7711 37.176ZM24.7661 37.488V42.204C25.0301 42.204 25.3181 42.192 25.5821 42.168V37.488H24.7661ZM26.9981 37.488V42.072C27.2981 42.036 27.5981 42.012 27.8621 41.976L27.9701 43.116C26.2541 43.488 24.0221 43.524 22.6541 43.524L22.4861 42.24C22.7501 42.24 23.0381 42.24 23.3501 42.24V37.488H22.6781V36.228H27.7061V37.488H26.9981ZM28.4861 39.012V35.208H29.9621V45.528H28.4861V40.392H27.4301V39.012H28.4861ZM30.6821 34.98H32.1821V46.044H30.6821V34.98ZM41.2052 34.968H42.7892V46.056H41.2052V34.968ZM36.8492 35.748C38.5172 35.748 39.7532 37.26 39.7532 39.684C39.7532 42.12 38.5172 43.644 36.8492 43.644C35.1812 43.644 33.9452 42.12 33.9452 39.684C33.9452 37.26 35.1812 35.748 36.8492 35.748ZM36.8492 37.176C36.0332 37.176 35.4692 38.052 35.4692 39.684C35.4692 41.328 36.0332 42.204 36.8492 42.204C37.6652 42.204 38.2292 41.328 38.2292 39.684C38.2292 38.052 37.6652 37.176 36.8492 37.176ZM48.9443 37.344V37.956C48.9443 39.756 49.8323 41.664 51.6803 42.432L50.8163 43.68C49.5323 43.128 48.6563 42.048 48.1643 40.716C47.6723 42.156 46.7843 43.368 45.4883 43.956L44.5883 42.696C46.4363 41.868 47.3363 39.84 47.3363 37.956V37.344H45.0323V36.036H51.2243V37.344H48.9443ZM52.2443 34.98H53.8283V46.032H52.2443V34.98Z" fill="#1964F7"/>
<path d="M37.1924 17.8076C35.7766 16.3918 34.0912 15.3437 32.2524 14.7089C34.2217 13.3525 35.5156 11.0826 35.5156 8.51562C35.5156 4.37137 32.1443 1 28 1C23.8557 1 20.4844 4.37137 20.4844 8.51562C20.4844 11.0826 21.7783 13.3525 23.7476 14.7089C21.9088 15.3432 20.2234 16.3918 18.8076 17.8076C16.3523 20.2629 15 23.5276 15 27H17.0312C17.0312 20.952 21.952 16.0312 28 16.0312C34.048 16.0312 38.9688 20.952 38.9688 27H41C41 23.5276 39.6477 20.2629 37.1924 17.8076ZM22.5156 8.51562C22.5156 5.4916 24.976 3.03125 28 3.03125C31.024 3.03125 33.4844 5.4916 33.4844 8.51562C33.4844 11.5396 31.024 14 28 14C24.976 14 22.5156 11.5396 22.5156 8.51562Z" fill="#1964F7" stroke="#1964F7" stroke-width="0.2"/>
</svg>
