<svg width="278" height="19" viewBox="0 0 278 19" fill="none" xmlns="http://www.w3.org/2000/svg">
<path d="M0.845703 18.5859V1.72852H5.32812V3.45117H2.99023V16.8633H5.32812V18.5859H0.845703ZM19.681 0.673828V16.5645H17.8177V8.51367H16.183V15.791H14.3373V0.955078H16.183V6.89648H17.8177V0.673828H19.681ZM10.8392 4.73438C10.8392 7.56445 11.7884 10.166 14.1439 11.3789L13.0013 12.873C11.4896 12.0645 10.4964 10.667 9.94273 8.93555C9.39781 10.9131 8.40465 12.5039 6.83141 13.4355L5.63609 11.9414C7.99156 10.6055 8.94078 7.82812 8.94078 4.73438V3.97852H6.1107V2.41406H13.4408V3.97852H10.8392V4.73438ZM23.7507 1.78125V7.79297C25.7898 7.7666 27.9519 7.61719 30.2898 7.14258L30.5007 8.74219C27.8816 9.28711 25.4382 9.42773 23.1003 9.42773H21.782V1.78125H23.7507ZM33.6296 0.691406V5.24414H35.8445V6.87891H33.6296V12.1172H31.6784V0.691406H33.6296ZM34.157 14.666V16.248H23.4695V11.0273H25.4382V14.666H34.157ZM50.795 8.61914V10.1836H44.6602V13.1016H42.7266V10.1836H36.2755V8.61914H50.795ZM48.9317 1.39453V7.14258H38.1212V1.39453H48.9317ZM40.0196 2.92383V5.61328H46.9981V2.92383H40.0196ZM49.1954 14.666V16.248H38.0333V11.6426H39.9845V14.666H49.1954ZM57.185 5.19141C57.185 7.65234 58.644 10.4473 61.1577 11.6074L60.0678 13.1543C58.2748 12.3105 56.9477 10.6055 56.2358 8.61914C55.5151 10.7988 54.1264 12.6621 52.2983 13.541L51.1557 12.0117C53.687 10.8164 55.2163 7.82812 55.2338 5.19141V3.85547H51.7709V2.23828H60.5073V3.85547H57.185V5.19141ZM63.935 0.673828V6.86133H66.3784V8.49609H63.935V16.5645H61.9838V0.673828H63.935ZM71.0457 18.5859H66.5633V16.8633H68.9012V3.45117H66.5633V1.72852H71.0457V18.5859ZM81.4702 1.18359C83.8784 1.18359 85.6714 2.67773 85.689 4.76953C85.6714 6.87891 83.8784 8.35547 81.4702 8.35547C79.0445 8.35547 77.2515 6.87891 77.2515 4.76953C77.2515 2.67773 79.0445 1.18359 81.4702 1.18359ZM81.4702 2.80078C80.1343 2.80078 79.1499 3.55664 79.1499 4.76953C79.1499 6 80.1343 6.77344 81.4702 6.77344C82.8062 6.77344 83.7906 6 83.7906 4.76953C83.7906 3.55664 82.8062 2.80078 81.4702 2.80078ZM90.2066 0.673828V8.70703H88.2378V0.673828H90.2066ZM90.2066 9.39258V13.541H81.6109V14.8242H90.6812V16.3711H79.6948V12.0996H88.2554V10.9219H79.6597V9.39258H90.2066ZM106.669 9.91992V11.4668H100.341V16.5645H98.4071V11.4668H92.1493V9.91992H106.669ZM95.8407 1.30664V3.25781H102.942V1.30664H104.911V8.26758H93.9071V1.30664H95.8407ZM95.8407 6.68555H102.942V4.80469H95.8407V6.68555ZM113.358 5.19141C113.358 7.79297 114.887 10.5352 117.453 11.6074L116.381 13.1543C114.5 12.3457 113.129 10.6758 112.408 8.6543C111.67 10.834 110.281 12.6621 108.418 13.541L107.293 12.0117C109.807 10.8516 111.371 7.89844 111.371 5.19141V3.85547H107.873V2.23828H116.838V3.85547H113.358V5.19141ZM120.582 0.673828V16.5645H118.614V0.673828H120.582ZM135.867 10.8164V16.5645H133.916V12.3633H125.039V10.8164H135.867ZM135.867 0.673828V10.0605H133.916V7.95117H130.189C129.433 8.79492 128.291 9.30469 126.972 9.30469C124.582 9.30469 122.771 7.6875 122.771 5.40234C122.771 3.15234 124.582 1.53516 126.972 1.55273C128.282 1.54395 129.424 2.03613 130.171 2.87109H133.916V0.673828H135.867ZM126.972 3.20508C125.601 3.20508 124.634 4.08398 124.634 5.40234C124.634 6.77344 125.601 7.63477 126.972 7.65234C128.273 7.63477 129.257 6.77344 129.275 5.40234C129.257 4.08398 128.273 3.20508 126.972 3.20508ZM131.015 6.36914H133.916V4.4707H131.033C131.094 4.76953 131.138 5.07715 131.138 5.40234C131.138 5.73633 131.094 6.06152 131.015 6.36914ZM154.817 1.21875V2.80078H152.637V5.71875H154.729V7.24805H149.877V8.83008H156.153V10.3945H141.668V8.83008H147.909V7.24805H143.057V5.71875H145.149V2.80078H142.969V1.21875H154.817ZM154.377 11.6426V16.5645H152.426V13.207H143.268V11.6426H154.377ZM147.1 5.71875H150.668V2.80078H147.1V5.71875ZM161.277 1.55273C162.56 1.54395 163.676 2.00977 164.441 2.80078H168.22V0.673828H170.172V9.72656H168.22V7.93359H164.424C163.659 8.71582 162.551 9.18164 161.277 9.18164C158.886 9.18164 157.076 7.58203 157.076 5.36719C157.076 3.11719 158.886 1.53516 161.277 1.55273ZM161.277 3.1875C159.906 3.16992 158.939 4.04883 158.939 5.36719C158.939 6.70312 159.906 7.5293 161.277 7.54688C162.595 7.5293 163.562 6.70312 163.58 5.36719C163.562 4.04883 162.595 3.16992 161.277 3.1875ZM170.172 10.4648V16.3711H159.607V10.4648H170.172ZM161.558 12.0117V14.7891H168.256V12.0117H161.558ZM165.32 4.38281C165.399 4.69043 165.443 5.02441 165.443 5.36719C165.443 5.70117 165.399 6.02637 165.32 6.33398H168.22V4.38281H165.32ZM189.28 0.691406V9.97266H187.329V8.21484H183.549V6.63281H187.329V4.92773H183.707C182.697 7.45898 180.385 9.22559 176.922 10.1836L176.131 8.63672C179.849 7.62598 181.827 5.74512 182.143 3.38086H176.975V1.79883H184.27C184.27 2.35254 184.226 2.87988 184.129 3.38086H187.329V0.691406H189.28ZM184.024 10.1484C187.241 10.1484 189.385 11.3613 189.385 13.3125C189.385 15.2637 187.241 16.4766 184.024 16.4766C180.772 16.4766 178.627 15.2637 178.627 13.3125C178.627 11.3613 180.772 10.1484 184.024 10.1484ZM184.024 11.6777C181.879 11.6777 180.579 12.2578 180.579 13.3125C180.579 14.3496 181.879 14.9297 184.024 14.9297C186.116 14.9297 187.434 14.3496 187.434 13.3125C187.434 12.2578 186.116 11.6777 184.024 11.6777ZM205.689 13.0488V14.6484H191.17V13.0488H197.428V9.95508H192.769V1.72852H194.72V4.33008H202.086V1.72852H204.037V9.95508H199.361V13.0488H205.689ZM194.72 8.37305H202.086V5.89453H194.72V8.37305ZM209.46 13.752L207.984 18.6738H206.314L207.228 13.752H209.46ZM219.357 5.52539C219.357 7.98633 220.377 10.4648 222.592 11.6602L221.502 13.1016C220.025 12.3193 219.023 10.9219 218.461 9.25195C217.898 11.0537 216.896 12.5918 215.402 13.4707L214.26 11.9941C216.51 10.6934 217.512 8.03906 217.512 5.52539V5.0332H214.805V3.45117H217.512V1.23633H219.357V3.45117H222.012V5.0332H219.357V5.52539ZM228.181 0.673828V16.5645H226.318V0.673828H228.181ZM224.947 0.972656V15.791H223.101V8.39062H221.027V6.77344H223.101V0.972656H224.947ZM242.236 0.673828V4.29492H244.45V5.89453H242.236V9.60352H240.284V0.673828H242.236ZM237.823 1.64062C237.806 5.77148 235.099 8.63672 230.353 9.90234L229.579 8.33789C233.262 7.38867 235.354 5.5166 235.696 3.22266H230.335V1.64062H237.823ZM242.236 10.2363V16.3535H231.952V10.2363H242.236ZM233.904 11.8359V14.8066H240.302V11.8359H233.904ZM259.383 8.95312V10.5352H244.899V8.95312H251.139V7.54688C248.239 7.33594 246.393 6.16699 246.393 4.33008C246.393 2.34375 248.661 1.11328 252.124 1.11328C255.586 1.11328 257.836 2.34375 257.854 4.33008C257.836 6.16699 256.008 7.33594 253.108 7.54688V8.95312H259.383ZM257.749 14.666V16.248H246.692V11.625H248.643V14.666H257.749ZM252.124 2.66016C249.821 2.67773 248.415 3.27539 248.432 4.33008C248.415 5.4375 249.821 6 252.124 6C254.444 6 255.833 5.4375 255.833 4.33008C255.833 3.27539 254.444 2.67773 252.124 2.66016ZM265.941 9.99023C265.185 9.99023 264.57 9.375 264.57 8.61914C264.57 7.88086 265.185 7.26562 265.941 7.26562C266.661 7.26562 267.294 7.88086 267.294 8.61914C267.294 9.375 266.661 9.99023 265.941 9.99023ZM270.845 9.99023C270.089 9.99023 269.474 9.375 269.474 8.61914C269.474 7.88086 270.089 7.26562 270.845 7.26562C271.566 7.26562 272.199 7.88086 272.199 8.61914C272.199 9.375 271.566 9.99023 270.845 9.99023ZM275.749 9.99023C274.993 9.99023 274.378 9.375 274.378 8.61914C274.378 7.88086 274.993 7.26562 275.749 7.26562C276.47 7.26562 277.103 7.88086 277.103 8.61914C277.103 9.375 276.47 9.99023 275.749 9.99023Z" fill="#202020"/>
</svg>
