<svg width="177" height="23" viewBox="0 0 177 23" fill="none" xmlns="http://www.w3.org/2000/svg">
<path d="M18.4453 0.851562V16.3438H15.4453V0.851562H18.4453ZM0.9375 11.75C5.69531 10.3789 8.4375 7.90625 8.95312 4.85938H2.15625V2.39844H12.2109C12.2109 8.1875 8.55469 12.2539 2.10938 14.1172L0.9375 11.75ZM4.19531 21.7812V14.9844H7.17188V19.3906H18.8906V21.7812H4.19531ZM26.5284 12.9688V15.2422H35.4112V12.9688H38.3644V21.9219H23.5987V12.9688H26.5284ZM21.255 11.5625V9.17188H34.9894C35.3995 7.10938 35.4581 5.51562 35.4816 4.08594H23.6456V1.69531H38.4581V3.40625C38.4698 5.02344 38.4698 6.74609 37.9542 9.17188H40.7784V11.5625H21.255ZM26.5284 19.5078H35.4112V17.5156H26.5284V19.5078ZM49.6584 4.17969C49.6467 6.76953 51.1584 9.25391 54.5334 10.2969L52.9397 12.6172C50.678 11.8672 49.0959 10.4141 48.1819 8.55078C47.2561 10.6953 45.6037 12.3828 43.1662 13.2031L41.5491 10.8594C45.1116 9.67578 46.635 6.83984 46.6584 3.89844V1.95312H49.6584V4.17969ZM44.5022 18.0312C44.4905 15.4414 47.3147 13.9062 51.8147 13.9062C56.2327 13.9062 58.9983 15.4414 59.01 18.0312C58.9983 20.6445 56.2327 22.168 51.8147 22.1562C47.3147 22.168 44.4905 20.6445 44.5022 18.0312ZM47.5022 18.0312C47.4787 19.2383 49.0139 19.8125 51.8147 19.8125C54.5803 19.8125 56.0569 19.2383 56.0569 18.0312C56.0569 16.8711 54.5803 16.25 51.8147 16.25C49.0139 16.25 47.4787 16.8711 47.5022 18.0312ZM55.7991 13.4844V0.828125H58.7991V5.82031H61.6819V8.30469H58.7991V13.4844H55.7991ZM79.5619 0.851562V6.89844H82.2806V9.35938H79.5619V15.2422H76.5619V0.851562H79.5619ZM62.265 12.4062C63.8236 12.4062 65.5931 12.3945 67.4447 12.3477V11.0938C65.1127 10.7773 63.683 9.69922 63.6947 8.11719C63.683 6.21875 65.7337 5.05859 68.9212 5.07031C72.0853 5.05859 74.1361 6.21875 74.1478 8.11719C74.1361 9.69922 72.7181 10.7773 70.4212 11.0938V12.2305C72.1673 12.1484 73.9252 12.0078 75.5775 11.7969L75.7884 13.8125C71.2533 14.5977 66.3431 14.6562 62.5697 14.6562L62.265 12.4062ZM62.8275 4.55469V2.35156H67.4447V0.664062H70.4212V2.35156H75.0384V4.55469H62.8275ZM65.0775 18.8047C65.0775 16.625 67.7142 15.4062 72.3666 15.4297C76.9837 15.4062 79.6322 16.625 79.6322 18.8047C79.6322 21.0078 76.9837 22.1797 72.3666 22.1797C67.7142 22.1797 65.0775 21.0078 65.0775 18.8047ZM66.5541 8.11719C66.5423 8.86719 67.3978 9.23047 68.9212 9.24219C70.4212 9.23047 71.2767 8.86719 71.2884 8.11719C71.2767 7.41406 70.4212 7.02734 68.9212 7.01562C67.3978 7.02734 66.5423 7.41406 66.5541 8.11719ZM68.0775 18.8047C68.0658 19.6133 69.4134 20.0117 72.3666 20C75.2728 20.0117 76.6205 19.6133 76.6322 18.8047C76.6205 17.9727 75.2728 17.5859 72.3666 17.5859C69.4134 17.5859 68.0658 17.9727 68.0775 18.8047Z" fill="#FF0000"/>
<path d="M100.981 0.828125V22.2031H97.9575V0.828125H100.981ZM83.7544 9.92188C83.7427 5.26953 86.1216 2.32812 89.4028 2.32812C92.6137 2.32812 95.0044 5.26953 95.0044 9.92188C95.0044 14.6094 92.6137 17.5391 89.4028 17.5391C86.1216 17.5391 83.7427 14.6094 83.7544 9.92188ZM86.6372 9.92188C86.6255 13.0977 87.7387 14.832 89.4028 14.8203C91.02 14.832 92.1098 13.0977 92.1216 9.92188C92.1098 6.75781 91.02 5.02344 89.4028 5.02344C87.7387 5.02344 86.6255 6.75781 86.6372 9.92188ZM121.603 0.851562V16.4141H118.603V0.851562H121.603ZM103.673 11.1406C107.248 9.94531 108.806 6.98047 108.806 4.08594V2.02344H111.923V4.08594C111.9 6.91016 113.412 9.66406 116.916 10.7891L115.392 13.1328C112.978 12.3359 111.326 10.7422 110.377 8.71484C109.416 10.8945 107.716 12.6523 105.22 13.5078L103.673 11.1406ZM107.306 21.7812V14.9141H110.33V19.3906H122.166V21.7812H107.306ZM141.194 0.828125V9.00781H144.217V11.4688H141.194V22.1094H138.194V0.828125H141.194ZM124.132 16.1328C129.182 13.6016 131.901 10.2031 132.464 5.44531H125.35V3.00781H135.499C135.475 9.38281 132.991 14.9023 125.819 18.4297L124.132 16.1328ZM164.512 17.2109V19.6719H144.988V17.2109H149.348V11.9844C147.695 10.9883 146.699 9.47656 146.699 7.60156C146.699 4.14453 150.074 1.87109 154.715 1.85938C159.332 1.87109 162.742 4.14453 162.754 7.60156C162.742 9.44141 161.781 10.9297 160.176 11.9258V17.2109H164.512ZM149.652 7.60156C149.652 9.6875 151.656 10.9766 154.715 10.9766C157.726 10.9766 159.789 9.6875 159.801 7.60156C159.789 5.45703 157.726 4.21484 154.715 4.22656C151.656 4.21484 149.652 5.45703 149.652 7.60156ZM152.301 17.2109H157.152V13.0625C156.39 13.2148 155.57 13.2969 154.715 13.2969C153.859 13.2969 153.051 13.2148 152.301 13.0742V17.2109ZM169.337 14.6562C169.349 11.7383 170.134 10.8477 171.54 9.96875C172.548 9.3125 173.333 8.58594 173.321 7.50781C173.333 6.33594 172.419 5.57422 171.282 5.5625C170.192 5.57422 169.173 6.30078 169.126 7.67188H165.798C165.856 4.37891 168.306 2.79688 171.306 2.79688C174.575 2.79688 176.884 4.49609 176.884 7.39062C176.884 9.32422 175.888 10.543 174.352 11.4688C173.028 12.2539 172.442 13.0156 172.431 14.6562V14.9141H169.337V14.6562ZM168.985 18.2422C168.962 17.1641 169.852 16.2852 170.954 16.2969C171.997 16.2852 172.899 17.1641 172.899 18.2422C172.899 19.332 171.997 20.2109 170.954 20.2109C169.852 20.2109 168.962 19.332 168.985 18.2422Z" fill="#202020"/>
</svg>
