<svg width="160" height="17" viewBox="0 0 160 17" fill="none" xmlns="http://www.w3.org/2000/svg">
<path d="M8.73633 2.85352C8.73633 3.66797 8.98242 4.46191 9.47461 5.23535C9.97266 6.00879 10.6582 6.67676 11.5312 7.23926C12.4043 7.7959 13.3828 8.16797 14.4668 8.35547L13.5879 9.99023C12.2637 9.71484 11.083 9.19629 10.0459 8.43457C9.00879 7.67285 8.22949 6.75586 7.70801 5.68359C7.3623 6.38672 6.89648 7.03125 6.31055 7.61719C5.72461 8.19727 5.05078 8.69238 4.28906 9.10254C3.52734 9.50684 2.70703 9.80273 1.82812 9.99023L0.966797 8.35547C2.0332 8.16211 3 7.78711 3.86719 7.23047C4.74023 6.66797 5.42285 6 5.91504 5.22656C6.41309 4.45312 6.66211 3.66211 6.66211 2.85352V1.67578H8.73633V2.85352ZM0.527344 12.9258H15.0469V14.543H0.527344V12.9258ZM24.6009 3.64453H18.5716V6.47461H23.9681V8.02148H18.5716V11.291C19.9603 11.2852 21.1791 11.25 22.2279 11.1855C23.2826 11.1152 24.3548 10.9922 25.4447 10.8164L25.638 12.3984C24.4603 12.5859 23.2884 12.7119 22.1224 12.7764C20.9564 12.8408 19.5736 12.873 17.974 12.873H16.638V2.04492H24.6009V3.64453ZM27.0267 0.673828H28.9955V16.5645H27.0267V0.673828ZM39.0417 2.23828C39.0359 3.96094 38.8249 5.52539 38.4089 6.93164C37.9988 8.33789 37.2693 9.64746 36.2204 10.8604C35.1775 12.0732 33.7448 13.1484 31.9226 14.0859L30.8503 12.5918C32.1511 11.918 33.2263 11.1855 34.0759 10.3945C34.9314 9.59766 35.5964 8.71875 36.071 7.75781L31.2019 8.21484L30.9206 6.54492L36.6775 6.19336C36.8884 5.47266 37.0261 4.68164 37.0905 3.82031H31.7468V2.23828H39.0417ZM39.0066 6.87891H42.2761V0.673828H44.2273V16.5645H42.2761V8.47852H39.0066V6.87891ZM60.6192 9.35742H46.0997V7.88086H60.6192V9.35742ZM47.7872 10.3066H58.8614V13.9277H49.7559V15.0352H59.336V16.3887H47.8048V12.6621H56.9278V11.6777H47.7872V10.3066ZM47.8927 1.02539H58.8262V4.61133H49.879V5.64844H59.1075V6.98438H47.9454V3.3457H56.8751V2.37891H47.8927V1.02539ZM78.532 12.293H76.5809V6.47461H73.7684V4.89258H76.5809V0.691406H78.532V12.293ZM65.1902 8.86523C66.0105 8.5957 66.7137 8.20312 67.2996 7.6875C67.8855 7.16602 68.3279 6.57422 68.6268 5.91211C68.9256 5.24414 69.075 4.55273 69.075 3.83789V3.41602H65.7703V1.83398H74.3484V3.41602H71.0613V3.85547C71.0613 4.50586 71.2049 5.1416 71.492 5.7627C71.7791 6.37793 72.2039 6.93164 72.7664 7.42383C73.3289 7.91016 74.0086 8.28516 74.8055 8.54883L73.8211 10.1133C72.9539 9.81445 72.2039 9.38086 71.5711 8.8125C70.9441 8.23828 70.452 7.56445 70.0945 6.79102C69.7371 7.64648 69.2273 8.39062 68.5652 9.02344C67.9031 9.65625 67.1121 10.1309 66.1922 10.4473L65.1902 8.86523ZM68.1082 11.2734H70.0594V14.666H78.9363V16.248H68.1082V11.2734ZM88.6134 8.35547H94.9064V9.91992H80.422V8.35547H86.6798V6.28125H88.6134V8.35547ZM81.213 5.64844C82.2794 5.51367 83.2228 5.24414 84.0431 4.83984C84.8693 4.42969 85.508 3.93457 85.9591 3.35449C86.4162 2.77441 86.6447 2.16797 86.6447 1.53516V0.9375H88.631V1.53516C88.631 2.17969 88.8566 2.79199 89.3078 3.37207C89.7589 3.95215 90.3976 4.44434 91.2238 4.84863C92.05 5.24707 93.0021 5.51367 94.0802 5.64844L93.3244 7.17773C92.0236 6.97852 90.8752 6.59766 89.8791 6.03516C88.883 5.4668 88.133 4.7666 87.6291 3.93457C87.1193 4.7666 86.3664 5.4668 85.3703 6.03516C84.3742 6.59766 83.2228 6.97852 81.9162 7.17773L81.213 5.64844ZM82.1095 13.752C82.1095 13.1602 82.3293 12.6562 82.7687 12.2402C83.2082 11.8184 83.841 11.499 84.6671 11.2822C85.4992 11.0654 86.4923 10.957 87.6466 10.957C88.7892 10.957 89.7707 11.0654 90.591 11.2822C91.4171 11.499 92.05 11.8184 92.4894 12.2402C92.9289 12.6562 93.1486 13.1602 93.1486 13.752C93.1486 14.3496 92.9289 14.8564 92.4894 15.2725C92.0558 15.6885 91.4259 16.0049 90.5998 16.2217C89.7794 16.4385 88.7951 16.5469 87.6466 16.5469C86.4923 16.5469 85.4992 16.4385 84.6671 16.2217C83.841 16.0049 83.2082 15.6885 82.7687 15.2725C82.3293 14.8564 82.1095 14.3496 82.1095 13.752ZM84.0959 13.752C84.09 14.1855 84.3859 14.5137 84.9836 14.7363C85.5871 14.959 86.4748 15.0703 87.6466 15.0703C88.7951 15.0703 89.6711 14.959 90.2746 14.7363C90.8839 14.5137 91.1916 14.1855 91.1974 13.752C91.1916 13.3184 90.8869 12.9932 90.2834 12.7764C89.6798 12.5596 88.8009 12.4512 87.6466 12.4512C86.4748 12.4512 85.5871 12.5596 84.9836 12.7764C84.3859 12.9932 84.09 13.3184 84.0959 13.752ZM109.207 10.4824H107.343V6.45703H105.832V10.2891H104.003V0.919922H105.832V4.85742H107.343V0.691406H109.207V10.4824ZM95.5308 2.30859H98.5366V0.761719H100.47V2.30859H103.441V3.85547H95.5308V2.30859ZM96.0933 7.21289C96.0874 6.66797 96.2281 6.1875 96.5152 5.77148C96.8081 5.35547 97.2154 5.0332 97.7368 4.80469C98.2583 4.57031 98.8472 4.45312 99.5034 4.45312C100.171 4.45312 100.766 4.57031 101.288 4.80469C101.815 5.0332 102.225 5.35547 102.518 5.77148C102.811 6.1875 102.96 6.66797 102.966 7.21289C102.96 7.75195 102.808 8.22949 102.509 8.64551C102.216 9.06152 101.809 9.38672 101.288 9.62109C100.766 9.85547 100.171 9.97266 99.5034 9.97266C98.8472 9.97266 98.2583 9.85547 97.7368 9.62109C97.2154 9.38672 96.8081 9.06152 96.5152 8.64551C96.2281 8.22949 96.0874 7.75195 96.0933 7.21289ZM96.5503 14.8945C97.2066 14.6953 97.7632 14.4111 98.2202 14.042C98.6831 13.6729 99.0318 13.2568 99.2661 12.7939C99.5005 12.3252 99.6148 11.8477 99.6089 11.3613V10.9746H101.543V11.3613C101.537 12.0117 101.692 12.6299 102.008 13.2158C102.331 13.7959 102.814 14.2764 103.459 14.6572C104.103 14.2588 104.592 13.7578 104.926 13.1543C105.266 12.5508 105.439 11.9531 105.445 11.3613V10.9746H107.378V11.3613C107.378 11.877 107.493 12.3691 107.721 12.8379C107.95 13.3066 108.293 13.7227 108.75 14.0859C109.212 14.4434 109.781 14.7129 110.455 14.8945L109.541 16.3711C108.785 16.1309 108.14 15.7793 107.607 15.3164C107.08 14.8535 106.675 14.3086 106.394 13.6816C106.125 14.3203 105.747 14.8857 105.26 15.3779C104.78 15.876 104.191 16.2539 103.494 16.5117C102.773 16.2598 102.169 15.8965 101.683 15.4219C101.197 14.9473 100.822 14.3936 100.558 13.7607C100.259 14.3584 99.8491 14.8799 99.3277 15.3252C98.8062 15.7764 98.1851 16.125 97.4644 16.3711L96.5503 14.8945ZM97.8335 7.21289C97.8335 7.62305 97.9859 7.94824 98.2906 8.18848C98.5952 8.42871 98.9995 8.54883 99.5034 8.54883C100.013 8.54883 100.42 8.42871 100.725 8.18848C101.036 7.94824 101.191 7.62305 101.191 7.21289C101.191 6.79102 101.036 6.46289 100.725 6.22852C100.42 5.99414 100.013 5.87695 99.5034 5.87695C98.9995 5.87695 98.5952 5.99414 98.2906 6.22852C97.9859 6.46289 97.8335 6.79102 97.8335 7.21289ZM114.489 11.7129H121.485V10.2012H123.436V16.3711H112.556V10.2012H114.489V11.7129ZM110.815 7.70508H125.3V9.30469H110.815V7.70508ZM111.554 5.33203C112.632 5.19727 113.587 4.93652 114.419 4.5498C115.257 4.16309 115.904 3.69727 116.361 3.15234C116.818 2.60742 117.05 2.03906 117.056 1.44727V0.849609H119.059V1.44727C119.059 2.02148 119.288 2.58398 119.745 3.13477C120.208 3.68555 120.855 4.16016 121.687 4.55859C122.519 4.95117 123.466 5.20898 124.526 5.33203L123.841 6.87891C122.522 6.70312 121.356 6.33691 120.343 5.78027C119.335 5.22363 118.573 4.53809 118.058 3.72363C117.542 4.53809 116.777 5.22363 115.764 5.78027C114.75 6.33105 113.587 6.69727 112.274 6.87891L111.554 5.33203ZM121.485 14.8242V13.207H114.489V14.8242H121.485ZM139.266 16.5645H137.332V0.673828H139.266V16.5645ZM126.926 2.2207H128.86V10.9043C131.362 10.8633 133.711 10.623 135.908 10.1836L136.155 11.8184C133.682 12.334 131.063 12.5859 128.297 12.5742H126.926V2.2207ZM153.654 6.70312H156.097V8.30273H153.654V16.582H151.703V0.673828H153.654V6.70312ZM141.859 2.18555H149.295V3.76758H143.81V11.0625C145.099 11.0566 146.259 11.0156 147.291 10.9395C148.322 10.8633 149.365 10.7344 150.42 10.5527L150.648 12.2051C149.494 12.4043 148.357 12.5361 147.238 12.6006C146.119 12.665 144.765 12.6973 143.177 12.6973H141.859V2.18555ZM158.339 15.1406C158.093 15.1406 157.864 15.0791 157.653 14.9561C157.442 14.833 157.275 14.666 157.152 14.4551C157.029 14.2441 156.968 14.0156 156.968 13.7695C156.968 13.5293 157.029 13.3066 157.152 13.1016C157.275 12.8906 157.442 12.7236 157.653 12.6006C157.864 12.4775 158.093 12.416 158.339 12.416C158.579 12.416 158.802 12.4775 159.007 12.6006C159.218 12.7236 159.385 12.8906 159.508 13.1016C159.631 13.3066 159.692 13.5293 159.692 13.7695C159.692 14.0156 159.631 14.2441 159.508 14.4551C159.385 14.666 159.218 14.833 159.007 14.9561C158.802 15.0791 158.579 15.1406 158.339 15.1406Z" fill="#202020"/>
</svg>
