<svg width="229" height="56" viewBox="0 0 229 56" fill="none" xmlns="http://www.w3.org/2000/svg">
<path d="M4.96582 12H3.33984V3.00586H3.28125L0.74707 4.66113V3.12305L3.38379 1.39453H4.96582V12ZM11.6145 12H9.98848V3.00586H9.92988L7.3957 4.66113V3.12305L10.0324 1.39453H11.6145V12ZM17.8529 1.24805C18.5658 1.24805 19.2226 1.40918 19.8231 1.73145C20.4286 2.04883 20.9218 2.58594 21.3026 3.34277C21.6884 4.09473 21.8813 5.08594 21.8813 6.31641C21.8813 7.54199 21.7128 8.5918 21.3759 9.46582C21.039 10.3398 20.558 11.0063 19.933 11.4653C19.3129 11.9194 18.5805 12.1465 17.7357 12.1465C17.0961 12.1465 16.5199 12.0244 16.0072 11.7803C15.4994 11.5312 15.0844 11.1846 14.7621 10.7402C14.4447 10.2959 14.2445 9.78809 14.1615 9.2168H15.7582C15.8705 9.67578 16.0976 10.0444 16.4394 10.3228C16.7812 10.5962 17.2133 10.7354 17.7357 10.7402C18.2777 10.7402 18.7416 10.5889 19.1273 10.2861C19.518 9.97852 19.8158 9.53662 20.0209 8.96045C20.2309 8.38428 20.3383 7.69336 20.3432 6.8877H20.2113C19.9232 7.33691 19.5399 7.68848 19.0614 7.94238C18.5878 8.19629 18.0678 8.32324 17.5014 8.32324C16.8715 8.32324 16.2953 8.17432 15.7729 7.87646C15.2504 7.57373 14.8354 7.15869 14.5277 6.63135C14.225 6.09912 14.0736 5.50098 14.0736 4.83691C14.0736 4.16797 14.2299 3.56006 14.5424 3.01318C14.8549 2.46631 15.2968 2.03662 15.8681 1.72412C16.4442 1.40674 17.1059 1.24805 17.8529 1.24805ZM15.641 4.79297C15.641 5.19824 15.7362 5.57178 15.9267 5.91357C16.1171 6.25049 16.3783 6.5166 16.7104 6.71191C17.0473 6.90723 17.4281 7.00488 17.8529 7.00488C18.268 7.00488 18.6488 6.90479 18.9955 6.70459C19.3471 6.49951 19.6229 6.22607 19.8231 5.88428C20.0233 5.54248 20.1234 5.17871 20.1234 4.79297C20.1234 4.41211 20.0258 4.05322 19.8305 3.71631C19.6352 3.37451 19.3666 3.10352 19.0248 2.90332C18.683 2.69824 18.3021 2.5957 17.8822 2.5957C17.4672 2.5957 17.0888 2.6958 16.747 2.896C16.4052 3.09131 16.1342 3.35742 15.934 3.69434C15.7387 4.02637 15.641 4.39258 15.641 4.79297ZM38.0057 3.09375H27.2098V1.96582H31.9266V0.310547H33.3035V1.96582H38.0057V3.09375ZM26.6385 10.6377H31.9266V8.90186C31.16 8.85303 30.4983 8.72363 29.9417 8.51367C29.3899 8.29883 28.9676 8.01074 28.6746 7.64941C28.3816 7.28809 28.2352 6.86816 28.2352 6.38965C28.2352 5.86719 28.4109 5.41797 28.7625 5.04199C29.1141 4.66602 29.6194 4.38037 30.2786 4.18506C30.9378 3.98486 31.7166 3.88477 32.615 3.88477C33.5037 3.88477 34.2752 3.98486 34.9295 4.18506C35.5887 4.38037 36.094 4.66602 36.4456 5.04199C36.8021 5.41797 36.9803 5.86719 36.9803 6.38965C36.9803 6.86816 36.8313 7.28809 36.5335 7.64941C36.2405 8.01074 35.8182 8.29883 35.2664 8.51367C34.7146 8.72363 34.0604 8.85303 33.3035 8.90186V10.6377H38.6502V11.7656H26.6385V10.6377ZM29.6561 6.38965C29.6512 6.84375 29.9051 7.19287 30.4178 7.43701C30.9354 7.68115 31.6678 7.80566 32.615 7.81055C33.5477 7.80566 34.2728 7.68115 34.7903 7.43701C35.3079 7.19287 35.5643 6.84375 35.5594 6.38965C35.5643 5.94043 35.3079 5.59375 34.7903 5.34961C34.2728 5.10547 33.5477 4.9834 32.615 4.9834C31.6727 4.9834 30.9427 5.10547 30.4251 5.34961C29.9075 5.59375 29.6512 5.94043 29.6561 6.38965ZM51.4805 6.91699H46.1924V8.01562H49.9863V10.9746H42.3398V12.0586H50.3525V13.1133H40.9775V10.0078H48.6094V9.02637H40.9629V8.01562H44.8154V6.91699H39.542V5.87695H51.4805V6.91699ZM40.1279 4.30957C40.9629 4.26562 41.7075 4.15332 42.3618 3.97266C43.0161 3.79199 43.5459 3.55762 43.9512 3.26953C44.3564 2.98145 44.6055 2.6543 44.6982 2.28809H40.7285V1.21875H44.8154V0.0615234H46.1924V1.21875H50.2939V2.28809H46.3022C46.395 2.6543 46.6416 2.98145 47.042 3.26953C47.4473 3.55762 47.9795 3.79199 48.6387 3.97266C49.3027 4.15332 50.0547 4.26562 50.8945 4.30957L50.4697 5.36426C49.2979 5.27637 48.2773 5.06396 47.4082 4.72705C46.5391 4.39014 45.9043 3.94092 45.5039 3.37939C45.1035 3.94092 44.4663 4.39014 43.5923 4.72705C42.7231 5.06396 41.7002 5.27637 40.5234 5.36426L40.1279 4.30957ZM62.6408 5.4375H64.7502V6.59473H62.6408V13.2451H61.2639V0.120117H62.6408V5.4375ZM52.343 2.1709H55.5803V0.295898H56.9719V2.1709H60.1213V3.31348H52.343V2.1709ZM53.0168 7.32715C53.0168 6.74121 53.156 6.21631 53.4343 5.75244C53.7175 5.28857 54.1057 4.92725 54.5988 4.66846C55.0969 4.40967 55.6584 4.28027 56.2834 4.28027C56.9035 4.28027 57.4602 4.40967 57.9533 4.66846C58.4514 4.92725 58.842 5.28857 59.1252 5.75244C59.4084 6.21631 59.55 6.74121 59.55 7.32715C59.55 7.91797 59.4084 8.44531 59.1252 8.90918C58.842 9.37305 58.4514 9.73682 57.9533 10.0005C57.4602 10.2593 56.9035 10.3887 56.2834 10.3887C55.6584 10.3887 55.0969 10.2593 54.5988 10.0005C54.1057 9.73682 53.7175 9.37305 53.4343 8.90918C53.156 8.44531 53.0168 7.91797 53.0168 7.32715ZM54.3498 7.32715C54.3498 7.70312 54.4304 8.03516 54.5915 8.32324C54.7575 8.61133 54.987 8.8335 55.28 8.98975C55.5778 9.146 55.9123 9.22168 56.2834 9.2168C56.6496 9.22168 56.9792 9.146 57.2722 8.98975C57.5651 8.8335 57.7946 8.61133 57.9606 8.32324C58.1315 8.03516 58.217 7.70312 58.217 7.32715C58.217 6.96094 58.1315 6.63379 57.9606 6.3457C57.7946 6.05762 57.5651 5.83301 57.2722 5.67188C56.9792 5.50586 56.6496 5.42285 56.2834 5.42285C55.9123 5.42285 55.5778 5.50586 55.28 5.67188C54.987 5.83301 54.7575 6.05762 54.5915 6.3457C54.4304 6.63379 54.3498 6.96094 54.3498 7.32715ZM76.2182 13.2451H74.8119V0.120117H76.2182V13.2451ZM65.4369 9.72949C67.1557 8.90918 68.4618 7.91064 69.3554 6.73389C70.2489 5.55713 70.7641 4.19238 70.9008 2.63965H66.0668V1.52637H72.307C72.307 3.55762 71.8212 5.36182 70.8495 6.93896C69.8827 8.51611 68.3227 9.82227 66.1693 10.8574L65.4369 9.72949ZM92.7234 13.2744H91.3465V6.05273H88.4461V10.0225H82.2937V1.13086H83.7V4.48535H87.0838V1.13086H88.4461V4.91016H91.3465V0.120117H92.7234V13.2744ZM87.0838 8.87988V5.58398H83.7V8.87988H87.0838ZM106.638 8.44043H94.6406V7.32715H106.638V8.44043ZM96.1787 9.30469H97.5557V11.8389H105.393V12.9668H96.1787V9.30469ZM96.208 0.588867H105.173V1.67285H97.6143V2.87402H104.836V3.92871H97.6143V5.15918H105.261V6.22852H96.208V0.588867ZM113.535 0.339844C114.522 0.339844 115.364 0.425293 116.062 0.596191C116.76 0.76709 117.295 1.02344 117.666 1.36523C118.037 1.70215 118.223 2.1123 118.223 2.5957C118.223 3.08398 118.037 3.49902 117.666 3.84082C117.295 4.17773 116.76 4.43408 116.062 4.60986C115.364 4.78076 114.522 4.86621 113.535 4.86621C112.549 4.86621 111.704 4.78076 111.001 4.60986C110.303 4.43408 109.768 4.17773 109.397 3.84082C109.031 3.49902 108.848 3.08398 108.848 2.5957C108.848 2.1123 109.031 1.70215 109.397 1.36523C109.768 1.02344 110.303 0.76709 111.001 0.596191C111.704 0.425293 112.549 0.339844 113.535 0.339844ZM107.559 5.67188H119.527V6.78516H107.559V5.67188ZM108.994 7.7959H118.018V10.8721H110.371V12.0439H118.384V13.1133H109.009V9.86133H116.641V8.83594H108.994V7.7959ZM110.298 2.5957C110.293 3.00098 110.569 3.30859 111.126 3.51855C111.682 3.72363 112.486 3.82617 113.535 3.82617C114.595 3.82617 115.403 3.72363 115.96 3.51855C116.516 3.30859 116.792 3.00098 116.787 2.5957C116.792 2.20508 116.511 1.90234 115.945 1.6875C115.383 1.47266 114.58 1.36523 113.535 1.36523C112.495 1.36523 111.695 1.47266 111.133 1.6875C110.571 1.90234 110.293 2.20508 110.298 2.5957ZM134.684 5.56934H125.558V0.764648H126.95V4.44141H134.684V5.56934ZM124.035 7.38574H136.046V8.52832H130.671V13.2451H129.294V8.52832H124.035V7.38574ZM148.935 11.6338H136.924V10.4912H148.935V11.6338ZM138.359 1.08691H147.471V5.18848H139.765V7.10742H147.778V8.2207H138.388V4.06055H146.094V2.21484H138.359V1.08691ZM154.632 3.45996C154.627 4.25098 154.771 5.02979 155.064 5.79639C155.362 6.56299 155.774 7.24414 156.302 7.83984C156.834 8.43066 157.435 8.875 158.104 9.17285L157.269 10.2715C156.521 9.91504 155.86 9.3877 155.284 8.68945C154.708 7.99121 154.263 7.19043 153.951 6.28711C153.643 7.26367 153.194 8.12549 152.603 8.87256C152.017 9.61963 151.336 10.1836 150.56 10.5645L149.71 9.39258C150.389 9.09473 150.994 8.63818 151.526 8.02295C152.059 7.40283 152.474 6.69482 152.771 5.89893C153.074 5.09814 153.226 4.28516 153.226 3.45996V1.21875H154.632V3.45996ZM159.29 0.120117H160.682V13.2744H159.29V0.120117ZM169.396 2.34668H172.252V0.134766H173.644V9.7002H172.252V6.30176H169.396V7.44434H163.302V1.2334H169.396V2.34668ZM168.033 6.3457V2.36133H164.679V6.3457H168.033ZM165.074 8.82129H166.481V11.8389H173.937V12.9668H165.074V8.82129ZM172.252 5.15918V3.48926H169.396V5.15918H172.252ZM191.189 11.5752H179.177V10.4326H184.436V7.3125H185.813V10.4326H191.189V11.5752ZM179.587 6.4043C180.422 6.2627 181.206 5.96973 181.939 5.52539C182.676 5.08105 183.267 4.54395 183.711 3.91406C184.155 3.2793 184.378 2.625 184.378 1.95117V0.955078H185.842V1.95117C185.842 2.625 186.065 3.2793 186.509 3.91406C186.958 4.54395 187.551 5.08105 188.289 5.52539C189.031 5.96973 189.822 6.2627 190.662 6.4043L190.061 7.54688C189.348 7.40527 188.667 7.1709 188.018 6.84375C187.373 6.5166 186.799 6.11133 186.296 5.62793C185.794 5.13965 185.4 4.60254 185.117 4.0166C184.834 4.60254 184.441 5.13721 183.938 5.62061C183.44 6.104 182.869 6.51172 182.224 6.84375C181.585 7.1709 180.911 7.40527 180.203 7.54688L179.587 6.4043ZM198.145 8.29395C199.044 8.29395 199.818 8.3916 200.467 8.58691C201.121 8.78223 201.622 9.06543 201.969 9.43652C202.32 9.80273 202.496 10.2422 202.496 10.7549C202.496 11.2725 202.32 11.7168 201.969 12.0879C201.622 12.4639 201.121 12.7495 200.467 12.9448C199.818 13.145 199.044 13.2451 198.145 13.2451C197.237 13.2451 196.451 13.145 195.787 12.9448C195.128 12.7495 194.62 12.4639 194.263 12.0879C193.912 11.7168 193.736 11.2725 193.736 10.7549C193.736 10.2422 193.912 9.80273 194.263 9.43652C194.62 9.06543 195.128 8.78223 195.787 8.58691C196.451 8.3916 197.237 8.29395 198.145 8.29395ZM192.579 0.94043H193.941V2.83008H197.384V0.94043H198.761V7.03418H192.579V0.94043ZM197.384 5.9209V3.92871H193.941V5.9209H197.384ZM195.128 10.7549C195.123 11.1943 195.387 11.5337 195.919 11.7729C196.451 12.0122 197.193 12.1318 198.145 12.1318C199.093 12.1318 199.827 12.0122 200.35 11.7729C200.877 11.5337 201.138 11.1943 201.134 10.7549C201.138 10.3203 200.877 9.98584 200.35 9.75146C199.827 9.51221 199.093 9.39258 198.145 9.39258C197.193 9.39258 196.451 9.51221 195.919 9.75146C195.387 9.98584 195.123 10.3203 195.128 10.7549ZM200.987 0.120117H202.379V3.32812H204.283V4.51465H202.379V7.95703H200.987V0.120117ZM212.265 1.84863V2.01709C212.255 2.65674 212.228 3.26221 212.184 3.8335C212.145 4.3999 212.06 5.03223 211.928 5.73047L210.551 5.59863C210.678 4.94922 210.763 4.36328 210.807 3.84082C210.856 3.31836 210.885 2.79102 210.895 2.25879H205.644V1.11621H212.265V1.84863ZM204.853 6.8584C205.785 6.8584 206.679 6.84863 207.533 6.8291V4.06055H208.91V6.78516C210.541 6.7168 211.933 6.59961 213.085 6.43359L213.173 7.44434C211.957 7.65918 210.673 7.80322 209.32 7.87646C207.968 7.94482 206.522 7.98145 204.984 7.98633L204.853 6.8584ZM206.845 9.08496H208.236V11.8389H215.766V12.9668H206.845V9.08496ZM213.92 0.120117H215.341V4.29492H217.143V5.4668H215.341V9.97852H213.92V0.120117ZM228.713 13.2744H227.321V0.120117H228.713V13.2744ZM218.298 5.70117C218.298 4.7832 218.442 3.97754 218.73 3.28418C219.018 2.58594 219.419 2.04883 219.931 1.67285C220.449 1.29199 221.037 1.10156 221.696 1.10156C222.346 1.10156 222.927 1.29199 223.44 1.67285C223.952 2.04883 224.353 2.58594 224.641 3.28418C224.934 3.97754 225.08 4.7832 225.08 5.70117C225.08 6.62891 224.934 7.44189 224.641 8.14014C224.353 8.83838 223.952 9.37549 223.44 9.75146C222.927 10.1274 222.346 10.3154 221.696 10.3154C221.037 10.3154 220.449 10.1274 219.931 9.75146C219.419 9.37549 219.018 8.83838 218.73 8.14014C218.442 7.44189 218.298 6.62891 218.298 5.70117ZM219.646 5.70117C219.646 6.38477 219.731 6.98047 219.902 7.48828C220.073 7.99609 220.312 8.38672 220.62 8.66016C220.932 8.93359 221.291 9.07031 221.696 9.07031C222.097 9.07031 222.451 8.93359 222.758 8.66016C223.066 8.38672 223.305 7.99609 223.476 7.48828C223.647 6.98047 223.733 6.38477 223.733 5.70117C223.733 5.02734 223.647 4.43896 223.476 3.93604C223.305 3.42822 223.066 3.0376 222.758 2.76416C222.451 2.48584 222.097 2.34668 221.696 2.34668C221.291 2.34668 220.932 2.48584 220.62 2.76416C220.312 3.0376 220.073 3.42822 219.902 3.93604C219.731 4.43896 219.646 5.02734 219.646 5.70117ZM11.4258 31.1396H10.0342V28.4297H7.9248V27.3164H10.0342V25.6904H7.9248V24.5479H10.0342V21.1348H11.4258V31.1396ZM0.498047 22.6582H3.57422V21.1201H4.95117V22.6582H7.88086V23.7861H0.498047V22.6582ZM1.23047 26.9355C1.23047 26.4424 1.35742 26.0054 1.61133 25.6245C1.87012 25.2388 2.22656 24.9409 2.68066 24.731C3.13965 24.521 3.66211 24.416 4.24805 24.416C4.8291 24.416 5.34912 24.521 5.80811 24.731C6.26709 24.9409 6.62598 25.2388 6.88477 25.6245C7.14844 26.0054 7.28027 26.4424 7.28027 26.9355C7.28027 27.4336 7.14844 27.8755 6.88477 28.2612C6.62598 28.6421 6.26709 28.9399 5.80811 29.1548C5.34912 29.3647 4.8291 29.4697 4.24805 29.4697C3.66211 29.4697 3.13965 29.3647 2.68066 29.1548C2.22656 28.9399 1.87012 28.6421 1.61133 28.2612C1.35742 27.8755 1.23047 27.4336 1.23047 26.9355ZM2.53418 26.9355C2.53418 27.2285 2.60498 27.4849 2.74658 27.7046C2.88818 27.9243 3.08838 28.0928 3.34717 28.21C3.61084 28.3271 3.91113 28.3857 4.24805 28.3857C4.58008 28.3857 4.87549 28.3271 5.13428 28.21C5.39795 28.0928 5.60303 27.9243 5.74951 27.7046C5.896 27.4849 5.97168 27.2285 5.97656 26.9355C5.97168 26.6523 5.896 26.4033 5.74951 26.1885C5.60303 25.9736 5.39795 25.8076 5.13428 25.6904C4.87549 25.5684 4.58008 25.5049 4.24805 25.5C3.91113 25.5049 3.61084 25.5684 3.34717 25.6904C3.08838 25.8076 2.88818 25.9736 2.74658 26.1885C2.60498 26.4033 2.53418 26.6523 2.53418 26.9355ZM2.85645 30.2607H4.2627V32.8389H11.7188V33.9668H2.85645V30.2607ZM24.7102 34.2451H23.3771V27.5068H21.8098V33.6006H20.4914V21.3691H21.8098V26.335H23.3771V21.1201H24.7102V34.2451ZM13.1965 30.5391C14.1291 30.0166 14.8298 29.2329 15.2985 28.188C15.7722 27.1431 16.009 25.9443 16.009 24.5918V23.7422H13.548V22.6143H19.6418V23.7422H17.3566V24.5918C17.3566 25.3975 17.4592 26.1567 17.6643 26.8696C17.8693 27.5776 18.1794 28.21 18.5944 28.7666C19.0144 29.3184 19.5344 29.7529 20.1545 30.0703L19.3342 31.1396C18.7043 30.7979 18.1696 30.334 17.7302 29.748C17.2907 29.1572 16.9514 28.4761 16.7121 27.7046C16.4826 28.5884 16.1457 29.3623 15.7014 30.0264C15.2619 30.6855 14.715 31.208 14.0607 31.5938L13.1965 30.5391ZM34.1549 21.7207C34.8092 21.7207 35.3951 21.8354 35.9127 22.0649C36.4303 22.2896 36.8355 22.6094 37.1285 23.0244C37.4215 23.4395 37.568 23.9131 37.568 24.4453C37.568 24.9727 37.4215 25.4438 37.1285 25.8589C36.8355 26.2739 36.4303 26.5962 35.9127 26.8257C35.3951 27.0503 34.8092 27.1602 34.1549 27.1553C33.5055 27.1602 32.922 27.0503 32.4044 26.8257C31.8917 26.5962 31.4913 26.2739 31.2032 25.8589C30.9151 25.4438 30.7711 24.9727 30.7711 24.4453C30.7711 23.9131 30.9151 23.4395 31.2032 23.0244C31.4913 22.6094 31.8917 22.2896 32.4044 22.0649C32.922 21.8354 33.5055 21.7207 34.1549 21.7207ZM29.8336 28.1807C31.4107 28.1807 32.9244 28.1489 34.3746 28.0854C35.8297 28.0171 37.1969 27.8877 38.4762 27.6973L38.5787 28.7373C37.4703 28.9473 36.2545 29.0962 34.9312 29.1841V33.835H33.5396V29.2646C32.7096 29.3037 31.5377 29.3281 30.024 29.3379L29.8336 28.1807ZM32.1187 24.4453C32.1139 24.7578 32.1969 25.0337 32.3678 25.2729C32.5436 25.5122 32.7853 25.6978 33.0929 25.8296C33.4054 25.9565 33.7594 26.0176 34.1549 26.0127C34.5602 26.0176 34.919 25.9565 35.2315 25.8296C35.5489 25.6978 35.7955 25.5122 35.9713 25.2729C36.1471 25.0337 36.235 24.7578 36.235 24.4453C36.235 24.1279 36.1471 23.8496 35.9713 23.6104C35.7955 23.3662 35.5489 23.1782 35.2315 23.0464C34.919 22.9146 34.5602 22.8486 34.1549 22.8486C33.7594 22.8486 33.4054 22.9146 33.0929 23.0464C32.7853 23.1782 32.5436 23.3662 32.3678 23.6104C32.1969 23.8545 32.1139 24.1328 32.1187 24.4453ZM39.3844 21.1348H40.7613V34.2451H39.3844V21.1348ZM53.6063 34.2451H52.2146V21.1201H53.6063V34.2451ZM42.9275 30.6562C43.5916 30.3584 44.18 29.9312 44.6927 29.3745C45.2054 28.8179 45.6033 28.188 45.8865 27.4849C46.1697 26.7817 46.3113 26.0664 46.3113 25.3389V24.4746H43.323V23.3613H46.2967V21.3838H47.6736V23.3613H50.618V24.4746H47.6736V25.3389C47.6736 26.0322 47.8177 26.7183 48.1058 27.397C48.3938 28.0708 48.7967 28.6763 49.3143 29.2134C49.8367 29.7456 50.4324 30.1533 51.1014 30.4365L50.3396 31.5059C49.5877 31.1787 48.9212 30.6929 48.3401 30.0483C47.764 29.3989 47.3221 28.6567 47.0145 27.8218C46.7166 28.7104 46.2771 29.499 45.6961 30.1875C45.1199 30.8711 44.4559 31.3838 43.7039 31.7256L42.9275 30.6562ZM67.6377 32.6777H55.626V31.5059H60.9141V29.2061H57.0908V25.0312H64.7959V23.1855H57.0615V22.043H66.1729V26.1445H58.4678V28.0635H66.4805V29.2061H62.291V31.5059H67.6377V32.6777ZM84.0551 27.917H78.767V29.0156H82.5609V31.9746H74.9145V33.0586H82.9271V34.1133H73.5521V31.0078H81.184V30.0264H73.5375V29.0156H77.39V27.917H72.1166V26.877H84.0551V27.917ZM72.7025 25.3096C73.5375 25.2656 74.2821 25.1533 74.9364 24.9727C75.5907 24.792 76.1205 24.5576 76.5258 24.2695C76.9311 23.9814 77.1801 23.6543 77.2729 23.2881H73.3031V22.2188H77.39V21.0615H78.767V22.2188H82.8686V23.2881H78.8769C78.9696 23.6543 79.2162 23.9814 79.6166 24.2695C80.0219 24.5576 80.5541 24.792 81.2133 24.9727C81.8773 25.1533 82.6293 25.2656 83.4691 25.3096L83.0443 26.3643C81.8725 26.2764 80.852 26.064 79.9828 25.7271C79.1137 25.3901 78.4789 24.9409 78.0785 24.3794C77.6781 24.9409 77.0409 25.3901 76.1669 25.7271C75.2978 26.064 74.2748 26.2764 73.098 26.3643L72.7025 25.3096ZM96.9732 28.6201H84.9908V27.5068H90.3082V26.1152H86.485V21.7207H95.4938V22.8193H87.8619V25.002H95.5816V26.1152H91.6559V27.5068H96.9732V28.6201ZM86.4117 31.8574C86.4117 31.3545 86.5924 30.9248 86.9537 30.5684C87.315 30.2119 87.8375 29.9409 88.5211 29.7554C89.2047 29.5649 90.0201 29.4697 90.9674 29.4697C91.9098 29.4697 92.7179 29.5649 93.3917 29.7554C94.0704 29.9409 94.5904 30.2119 94.9518 30.5684C95.3131 30.9248 95.4938 31.3545 95.4938 31.8574C95.4938 32.3604 95.3131 32.79 94.9518 33.1465C94.5904 33.5029 94.0704 33.7739 93.3917 33.9595C92.7179 34.1499 91.9098 34.2451 90.9674 34.2451C90.0201 34.2451 89.2047 34.1499 88.5211 33.9595C87.8375 33.7739 87.315 33.5029 86.9537 33.1465C86.5924 32.79 86.4117 32.3604 86.4117 31.8574ZM87.818 31.8574C87.8131 32.2773 88.0841 32.5996 88.631 32.8242C89.1827 33.0488 89.9615 33.1562 90.9674 33.1465C91.9586 33.1562 92.7276 33.0488 93.2745 32.8242C93.8263 32.5996 94.1021 32.2773 94.1021 31.8574C94.1021 31.4424 93.8263 31.1226 93.2745 30.8979C92.7276 30.6685 91.9586 30.5537 90.9674 30.5537C89.9664 30.5537 89.19 30.6685 88.6383 30.8979C88.0865 31.1226 87.8131 31.4424 87.818 31.8574ZM108.104 26.4375H110.214V27.5947H108.104V34.2451H106.727V21.1201H108.104V26.4375ZM97.8064 23.1709H101.044V21.2959H102.435V23.1709H105.585V24.3135H97.8064V23.1709ZM98.4803 28.3271C98.4803 27.7412 98.6194 27.2163 98.8978 26.7524C99.181 26.2886 99.5691 25.9272 100.062 25.6685C100.56 25.4097 101.122 25.2803 101.747 25.2803C102.367 25.2803 102.924 25.4097 103.417 25.6685C103.915 25.9272 104.305 26.2886 104.589 26.7524C104.872 27.2163 105.013 27.7412 105.013 28.3271C105.013 28.918 104.872 29.4453 104.589 29.9092C104.305 30.373 103.915 30.7368 103.417 31.0005C102.924 31.2593 102.367 31.3887 101.747 31.3887C101.122 31.3887 100.56 31.2593 100.062 31.0005C99.5691 30.7368 99.181 30.373 98.8978 29.9092C98.6194 29.4453 98.4803 28.918 98.4803 28.3271ZM99.8133 28.3271C99.8133 28.7031 99.8938 29.0352 100.055 29.3232C100.221 29.6113 100.45 29.8335 100.743 29.9897C101.041 30.146 101.376 30.2217 101.747 30.2168C102.113 30.2217 102.443 30.146 102.736 29.9897C103.029 29.8335 103.258 29.6113 103.424 29.3232C103.595 29.0352 103.68 28.7031 103.68 28.3271C103.68 27.9609 103.595 27.6338 103.424 27.3457C103.258 27.0576 103.029 26.833 102.736 26.6719C102.443 26.5059 102.113 26.4229 101.747 26.4229C101.376 26.4229 101.041 26.5059 100.743 26.6719C100.45 26.833 100.221 27.0576 100.055 27.3457C99.8938 27.6338 99.8133 27.9609 99.8133 28.3271ZM117.375 24.2109H120.334V21.1201H121.711V34.2744H120.334V28.9424H117.375V30.9639H111.281V22.3799H117.375V24.2109ZM116.013 29.8506V23.4639H112.658V29.8506H116.013ZM120.334 27.8145V25.3535H117.375V27.8145H120.334ZM124.844 36.0322H123.599L124.375 31.9893H126.016L124.844 36.0322ZM143.019 32.6191H131.007V31.4619H136.296V28.7666H132.384V22.0137H133.776V24.2695H140.221V22.0137H141.598V28.7666H137.672V31.4619H143.019V32.6191ZM140.221 27.6387V25.3975H133.776V27.6387H140.221ZM155.263 24.0938H144.468V22.9658H149.184V21.3105H150.561V22.9658H155.263V24.0938ZM143.896 31.6377H149.184V29.9019C148.418 29.853 147.756 29.7236 147.2 29.5137C146.648 29.2988 146.225 29.0107 145.932 28.6494C145.639 28.2881 145.493 27.8682 145.493 27.3896C145.493 26.8672 145.669 26.418 146.02 26.042C146.372 25.666 146.877 25.3804 147.536 25.1851C148.196 24.9849 148.974 24.8848 149.873 24.8848C150.762 24.8848 151.533 24.9849 152.187 25.1851C152.846 25.3804 153.352 25.666 153.703 26.042C154.06 26.418 154.238 26.8672 154.238 27.3896C154.238 27.8682 154.089 28.2881 153.791 28.6494C153.498 29.0107 153.076 29.2988 152.524 29.5137C151.972 29.7236 151.318 29.853 150.561 29.9019V31.6377H155.908V32.7656H143.896V31.6377ZM146.914 27.3896C146.909 27.8438 147.163 28.1929 147.676 28.437C148.193 28.6812 148.926 28.8057 149.873 28.8105C150.805 28.8057 151.531 28.6812 152.048 28.437C152.566 28.1929 152.822 27.8438 152.817 27.3896C152.822 26.9404 152.566 26.5938 152.048 26.3496C151.531 26.1055 150.805 25.9834 149.873 25.9834C148.93 25.9834 148.2 26.1055 147.683 26.3496C147.165 26.5938 146.909 26.9404 146.914 27.3896ZM161.355 24.9873C161.355 25.6758 161.497 26.374 161.78 27.082C162.063 27.7852 162.459 28.4248 162.967 29.001C163.479 29.5723 164.061 30.0117 164.71 30.3193L163.919 31.4033C163.196 31.0566 162.552 30.5391 161.985 29.8506C161.419 29.1572 160.984 28.376 160.682 27.5068C160.379 28.4492 159.932 29.2988 159.341 30.0557C158.755 30.8076 158.094 31.3691 157.356 31.7402L156.536 30.6416C157.186 30.3291 157.771 29.8701 158.294 29.2646C158.821 28.6543 159.234 27.9731 159.532 27.2212C159.83 26.4644 159.979 25.7197 159.979 24.9873V23.5957H157.02V22.4385H164.212V23.5957H161.355V24.9873ZM165.618 21.1201H167.01V26.3203H169.119V27.4922H167.01V34.2451H165.618V21.1201ZM180.968 34.2451H179.635V21.1201H180.968V34.2451ZM169.821 26.7891C169.821 25.8516 169.935 25.0361 170.165 24.3428C170.399 23.6445 170.729 23.1099 171.154 22.7388C171.583 22.3628 172.081 22.1748 172.648 22.1748C173.175 22.1748 173.641 22.3335 174.047 22.6509C174.457 22.9683 174.784 23.4272 175.028 24.0278C175.277 24.6235 175.428 25.3291 175.482 26.1445H176.969V21.3691H178.302V33.6006H176.969V27.2725H175.489C175.45 28.1221 175.309 28.8594 175.065 29.4844C174.821 30.1045 174.491 30.583 174.076 30.9199C173.661 31.252 173.185 31.418 172.648 31.418C172.081 31.418 171.583 31.2324 171.154 30.8613C170.729 30.4854 170.399 29.9482 170.165 29.25C169.935 28.5469 169.821 27.7266 169.821 26.7891ZM171.11 26.7891C171.11 27.4775 171.171 28.0708 171.293 28.5688C171.42 29.0669 171.598 29.4478 171.827 29.7114C172.062 29.9702 172.335 30.0996 172.648 30.0996C172.97 30.0996 173.248 29.9702 173.483 29.7114C173.717 29.4478 173.898 29.0669 174.025 28.5688C174.152 28.0708 174.215 27.4775 174.215 26.7891C174.215 26.0957 174.152 25.5024 174.025 25.0093C173.898 24.5112 173.717 24.1328 173.483 23.874C173.248 23.6104 172.97 23.4785 172.648 23.4785C172.335 23.4785 172.062 23.6104 171.827 23.874C171.598 24.1328 171.42 24.5112 171.293 25.0093C171.171 25.5073 171.11 26.1006 171.11 26.7891ZM193.842 34.2451H192.524V21.1201H193.842V34.2451ZM182.519 30.4512C183.886 29.6406 184.924 28.6909 185.632 27.6021C186.34 26.5083 186.755 25.2705 186.877 23.8887H183.134V22.7461H188.261C188.251 24.0938 188.056 25.3096 187.675 26.3936H189.755V21.457H191.074V33.6006H189.755V27.5068H187.192C186.381 29.0938 185.087 30.4072 183.31 31.4473L182.519 30.4512ZM209.937 22.8193H205.946C205.985 23.2539 206.202 23.6641 206.597 24.0498C206.998 24.4307 207.528 24.7529 208.187 25.0166C208.851 25.2754 209.586 25.4463 210.391 25.5293L209.879 26.6133C209.122 26.5303 208.419 26.3716 207.769 26.1372C207.12 25.8979 206.556 25.5952 206.077 25.229C205.604 24.8628 205.25 24.4478 205.015 23.9839C204.781 24.4478 204.427 24.8628 203.953 25.229C203.48 25.5952 202.918 25.8979 202.269 26.1372C201.619 26.3716 200.919 26.5303 200.167 26.6133L199.669 25.5293C200.465 25.4414 201.192 25.2656 201.851 25.002C202.511 24.7383 203.038 24.416 203.433 24.0352C203.834 23.6543 204.051 23.249 204.085 22.8193H200.137V21.7061H209.937V22.8193ZM199.039 27.3896H211.036V28.5176H199.039V27.3896ZM200.372 29.7334H209.542V34.2451H208.136V30.8613H200.372V29.7334ZM216.747 24.46C216.742 25.251 216.886 26.0298 217.179 26.7964C217.477 27.563 217.89 28.2441 218.417 28.8398C218.949 29.4307 219.55 29.875 220.219 30.1729L219.384 31.2715C218.637 30.915 217.975 30.3877 217.399 29.6895C216.823 28.9912 216.378 28.1904 216.066 27.2871C215.758 28.2637 215.309 29.1255 214.718 29.8726C214.132 30.6196 213.451 31.1836 212.675 31.5645L211.825 30.3926C212.504 30.0947 213.109 29.6382 213.642 29.0229C214.174 28.4028 214.589 27.6948 214.887 26.8989C215.189 26.0981 215.341 25.2852 215.341 24.46V22.2188H216.747V24.46ZM221.405 21.1201H222.797V34.2744H221.405V21.1201ZM10.7959 44.8594H12.7002V46.0166H10.7959V48.7559H9.4043V42.1201H10.7959V44.8594ZM0.688477 45.5039C0.683594 44.9375 0.827637 44.4321 1.12061 43.9878C1.41846 43.5435 1.82861 43.1968 2.35107 42.9478C2.87842 42.6987 3.47168 42.5742 4.13086 42.5742C4.79004 42.5742 5.38086 42.6987 5.90332 42.9478C6.42578 43.1968 6.8335 43.5435 7.12646 43.9878C7.42432 44.4272 7.57324 44.9326 7.57324 45.5039C7.57324 46.0703 7.42432 46.5757 7.12646 47.02C6.8335 47.4644 6.42578 47.811 5.90332 48.0601C5.38086 48.3091 4.79004 48.4336 4.13086 48.4336C3.47656 48.4336 2.88574 48.3091 2.3584 48.0601C1.83594 47.811 1.42578 47.4644 1.12793 47.02C0.830078 46.5757 0.683594 46.0703 0.688477 45.5039ZM2.03613 45.5039C2.03613 45.8555 2.12402 46.1704 2.2998 46.4487C2.48047 46.7222 2.72949 46.937 3.04688 47.0933C3.36914 47.2446 3.73047 47.3203 4.13086 47.3203C4.53125 47.3203 4.89014 47.2446 5.20752 47.0933C5.5249 46.937 5.77393 46.7222 5.95459 46.4487C6.13525 46.1704 6.22559 45.8555 6.22559 45.5039C6.22559 45.1523 6.13525 44.8423 5.95459 44.5737C5.77393 44.3003 5.5249 44.0903 5.20752 43.9438C4.89014 43.7925 4.53125 43.7168 4.13086 43.7168C3.73047 43.7168 3.36914 43.7925 3.04688 43.9438C2.72949 44.0903 2.48047 44.3003 2.2998 44.5737C2.12402 44.8423 2.03613 45.1523 2.03613 45.5039ZM2.31445 49.3564H10.7959V52.6816H3.70605V53.9707H11.25V55.084H2.34375V51.6416H9.41895V50.4404H2.31445V49.3564ZM24.2561 49.9131H22.8645V42.1348H24.2561V49.9131ZM14.0314 42.9111H20.0666V46.6025H15.423V48.1846C16.6682 48.1846 17.7399 48.1577 18.6384 48.104C19.5368 48.0503 20.4572 47.9453 21.3996 47.7891L21.5754 48.9316C20.5939 49.083 19.6394 49.188 18.7116 49.2466C17.7839 49.3003 16.7072 49.3271 15.4816 49.3271H15.1594H14.0607V45.5186H18.6896V44.0244H14.0314V42.9111ZM15.6281 50.5723H24.2561V55.084H15.6281V50.5723ZM22.8938 53.9561V51.6855H17.0051V53.9561H22.8938ZM37.1303 55.2744H35.7387V42.1201H37.1303V55.2744ZM26.7152 47.7012C26.7152 46.7832 26.8593 45.9775 27.1474 45.2842C27.4354 44.5859 27.8358 44.0488 28.3485 43.6729C28.8661 43.292 29.4545 43.1016 30.1137 43.1016C30.7631 43.1016 31.3441 43.292 31.8568 43.6729C32.3695 44.0488 32.7699 44.5859 33.058 45.2842C33.351 45.9775 33.4975 46.7832 33.4975 47.7012C33.4975 48.6289 33.351 49.4419 33.058 50.1401C32.7699 50.8384 32.3695 51.3755 31.8568 51.7515C31.3441 52.1274 30.7631 52.3154 30.1137 52.3154C29.4545 52.3154 28.8661 52.1274 28.3485 51.7515C27.8358 51.3755 27.4354 50.8384 27.1474 50.1401C26.8593 49.4419 26.7152 48.6289 26.7152 47.7012ZM28.0629 47.7012C28.0629 48.3848 28.1483 48.9805 28.3192 49.4883C28.4901 49.9961 28.7294 50.3867 29.037 50.6602C29.3495 50.9336 29.7084 51.0703 30.1137 51.0703C30.5141 51.0703 30.8681 50.9336 31.1757 50.6602C31.4833 50.3867 31.7226 49.9961 31.8935 49.4883C32.0644 48.9805 32.1498 48.3848 32.1498 47.7012C32.1498 47.0273 32.0644 46.439 31.8935 45.936C31.7226 45.4282 31.4833 45.0376 31.1757 44.7642C30.8681 44.4858 30.5141 44.3467 30.1137 44.3467C29.7084 44.3467 29.3495 44.4858 29.037 44.7642C28.7294 45.0376 28.4901 45.4282 28.3192 45.936C28.1483 46.439 28.0629 47.0273 28.0629 47.7012ZM53.6795 51.7441H52.2879V46.8076H49.783V45.6797H52.2879V42.1348H53.6795V51.7441ZM42.7518 49.0049C43.4109 48.7803 43.9871 48.4531 44.4803 48.0234C44.9783 47.5889 45.3592 47.0908 45.6229 46.5293C45.8865 45.9678 46.0184 45.3867 46.0184 44.7861V44.2734H43.1766V43.1309H50.2518V44.2734H47.4393V44.7861C47.4344 45.333 47.5589 45.8677 47.8128 46.3901C48.0716 46.9126 48.4402 47.3789 48.9188 47.7891C49.3973 48.1992 49.9588 48.5117 50.6033 48.7266L49.8855 49.8398C49.1629 49.5859 48.533 49.21 47.9959 48.7119C47.4588 48.2139 47.0438 47.6328 46.7508 46.9688C46.4627 47.7012 46.0354 48.3433 45.469 48.895C44.9075 49.4468 44.241 49.8594 43.4695 50.1328L42.7518 49.0049ZM45.1541 50.8799H46.5457V53.8389H54.0311V54.9668H45.1541V50.8799ZM62.291 48.5508H67.5938V49.6787H55.626V48.5508H60.9141V46.7197H62.291V48.5508ZM56.3145 46.3389C57.1445 46.2314 57.9087 46.0093 58.6069 45.6724C59.3101 45.3306 59.8667 44.9155 60.2769 44.4272C60.6919 43.939 60.8994 43.4238 60.8994 42.8818V42.3252H62.3057V42.8818C62.3057 43.4287 62.5083 43.9487 62.9136 44.4419C63.3237 44.9302 63.8779 45.3428 64.5762 45.6797C65.2793 46.0117 66.0508 46.2314 66.8906 46.3389L66.3486 47.4375C65.2891 47.2666 64.3345 46.937 63.4849 46.4487C62.6353 45.9556 62.0054 45.3525 61.5952 44.6396C61.1851 45.3525 60.5552 45.9556 59.7056 46.4487C58.856 46.937 57.8965 47.2666 56.8271 47.4375L56.3145 46.3389ZM57.0469 52.9453C57.0469 52.457 57.2275 52.042 57.5889 51.7002C57.9502 51.3535 58.4702 51.0923 59.1489 50.9165C59.8325 50.7358 60.6504 50.6455 61.6025 50.6455C62.5449 50.6455 63.353 50.7358 64.0269 50.9165C64.7056 51.0923 65.2256 51.3535 65.5869 51.7002C65.9482 52.042 66.1289 52.457 66.1289 52.9453C66.1289 53.4287 65.9482 53.8413 65.5869 54.1831C65.2256 54.5249 64.7056 54.7812 64.0269 54.9521C63.353 55.1279 62.5449 55.2158 61.6025 55.2158C60.6504 55.2158 59.8325 55.1279 59.1489 54.9521C58.4702 54.7812 57.9502 54.5249 57.5889 54.1831C57.2275 53.8413 57.0469 53.4287 57.0469 52.9453ZM58.4531 52.9453C58.4482 53.3359 58.7168 53.6362 59.2588 53.8462C59.8057 54.0562 60.5869 54.1611 61.6025 54.1611C62.6035 54.1611 63.375 54.0562 63.917 53.8462C64.4639 53.6362 64.7373 53.3359 64.7373 52.9453C64.7373 52.5498 64.4663 52.2471 63.9243 52.0371C63.3823 51.8271 62.6084 51.7197 61.6025 51.7148C60.582 51.7197 59.8008 51.8271 59.2588 52.0371C58.7168 52.2471 58.4482 52.5498 58.4531 52.9453ZM79.4279 49.6934H78.0217V42.1348H79.4279V49.6934ZM68.5441 48.3018C69.9357 48.3018 71.1564 48.2871 72.2063 48.2578V46.9688H69.716V42.75H75.9855V43.8926H71.1076V45.8701H76.1027V46.9688H73.5832V48.1992C74.9162 48.1309 76.0637 48.0332 77.0256 47.9062L77.0988 48.8877C75.8391 49.1025 74.5354 49.2441 73.1877 49.3125C71.84 49.3809 70.3605 49.4199 68.7492 49.4297L68.5441 48.3018ZM70.6682 50.2646H72.0598V51.5244H78.051V50.2646H79.4279V55.084H70.6682V50.2646ZM78.051 53.9561V52.5938H72.0598V53.9561H78.051ZM92.3021 55.2451H90.9105V42.1201H92.3021V55.2451ZM82.2094 43.3945H83.5863V50.7041C85.6664 50.6943 87.6781 50.4941 89.6215 50.1035L89.8119 51.2754C88.6986 51.5049 87.6098 51.6685 86.5453 51.7661C85.4809 51.8638 84.4018 51.9102 83.308 51.9053H82.2094V43.3945ZM104.517 47.2031H106.627V48.3457H104.517V55.2744H103.126V42.1201H104.517V47.2031ZM94.8492 43.3799H100.987V44.5078H96.2408V50.8506C97.4029 50.8457 98.4234 50.8115 99.3023 50.748C100.181 50.6846 101.07 50.5723 101.968 50.4111L102.144 51.583C101.216 51.749 100.306 51.8613 99.4122 51.9199C98.5235 51.9785 97.4664 52.0078 96.2408 52.0078H95.9039H94.8492V43.3799ZM108.676 54.1025C108.49 54.1025 108.317 54.0562 108.156 53.9634C107.999 53.8706 107.872 53.7461 107.775 53.5898C107.682 53.4336 107.636 53.2627 107.636 53.0771C107.636 52.8867 107.682 52.7109 107.775 52.5498C107.867 52.3887 107.992 52.2617 108.148 52.1689C108.309 52.0713 108.485 52.0225 108.676 52.0225C108.861 52.0225 109.032 52.0688 109.188 52.1616C109.349 52.2544 109.476 52.3813 109.569 52.5425C109.667 52.7036 109.716 52.877 109.716 53.0625C109.716 53.248 109.667 53.4214 109.569 53.5825C109.476 53.7388 109.349 53.8657 109.188 53.9634C109.032 54.0562 108.861 54.1025 108.676 54.1025Z" fill="#202020"/>
</svg>
