<svg width="33" height="18" viewBox="0 0 33 18" fill="none" xmlns="http://www.w3.org/2000/svg">
<path d="M14.6289 0.0234375V3.46094H17.0312V5.51172H14.6289V8.91016H12.1289V0.0234375H14.6289ZM0.644531 4.57422C0.634766 2.20117 2.69531 0.560547 5.42969 0.550781C8.1543 0.560547 10.1953 2.20117 10.1953 4.57422C10.1953 6.91797 8.1543 8.59766 5.42969 8.59766C2.69531 8.59766 0.634766 6.91797 0.644531 4.57422ZM2.83203 11.5273V9.61328H14.6289V14.457H5.3125V15.6484H15.1367V17.6016H2.87109V12.6602H12.1484V11.5273H2.83203ZM3.08594 4.57422C3.06641 5.83398 4.0625 6.625 5.42969 6.625C6.78711 6.625 7.77344 5.83398 7.77344 4.57422C7.77344 3.33398 6.78711 2.58203 5.42969 2.58203C4.0625 2.58203 3.06641 3.33398 3.08594 4.57422ZM32.2953 0.0429688V10.5703H29.7953V0.0429688H32.2953ZM18.3305 3.01172V1.05859H26.5727V6.39062H20.7914V7.93359C23.7602 7.92383 25.8598 7.8457 28.2523 7.44531L28.5648 9.4375C25.8402 9.87695 23.4379 9.96484 19.9125 9.96484H18.35V4.49609H24.0922V3.01172H18.3305ZM20.3813 17.6016V11.3516H32.2953V17.6016H20.3813ZM22.8422 15.6094H29.8539V13.3242H22.8422V15.6094Z" fill="#202020"/>
</svg>
