<svg width="78" height="37" viewBox="0 0 78 37" fill="none" xmlns="http://www.w3.org/2000/svg">
<path d="M13.6307 36.4773C11.1761 36.4773 8.99432 36.0568 7.08523 35.2159C5.1875 34.375 3.6875 33.2045 2.58523 31.7045C1.48295 30.2045 0.897727 28.4716 0.829546 26.5057H7.23864C7.29545 27.4489 7.60795 28.2727 8.17614 28.9773C8.74432 29.6705 9.5 30.2102 10.4432 30.5966C11.3864 30.983 12.4432 31.1761 13.6136 31.1761C14.8636 31.1761 15.9716 30.9602 16.9375 30.5284C17.9034 30.0852 18.6591 29.4716 19.2045 28.6875C19.75 27.9034 20.017 27 20.0057 25.9773C20.017 24.9205 19.7443 23.9886 19.1875 23.1818C18.6307 22.375 17.8239 21.7443 16.767 21.2898C15.7216 20.8352 14.4602 20.608 12.983 20.608H9.89773V15.733H12.983C14.1989 15.733 15.2614 15.5227 16.1705 15.1023C17.0909 14.6818 17.8125 14.0909 18.3352 13.3295C18.858 12.5568 19.1136 11.6648 19.1023 10.6534C19.1136 9.66477 18.892 8.80682 18.4375 8.07955C17.9943 7.34091 17.3636 6.76704 16.5455 6.35795C15.7386 5.94886 14.7898 5.74432 13.6989 5.74432C12.6307 5.74432 11.642 5.9375 10.733 6.32386C9.82386 6.71023 9.09091 7.26136 8.53409 7.97727C7.97727 8.68182 7.68182 9.52273 7.64773 10.5H1.5625C1.60795 8.54545 2.17045 6.82955 3.25 5.35227C4.34091 3.86364 5.79545 2.70454 7.61364 1.875C9.43182 1.03409 11.4716 0.613635 13.733 0.613635C16.0625 0.613635 18.0852 1.05114 19.8011 1.92614C21.5284 2.78977 22.8636 3.95454 23.8068 5.42045C24.75 6.88636 25.2216 8.50568 25.2216 10.2784C25.233 12.2443 24.6534 13.892 23.483 15.2216C22.3239 16.5511 20.8011 17.4205 18.9148 17.8295V18.1023C21.3693 18.4432 23.25 19.3523 24.5568 20.8295C25.875 22.2955 26.5284 24.1193 26.517 26.3011C26.517 28.2557 25.9602 30.0057 24.8466 31.5511C23.7443 33.0852 22.2216 34.2898 20.2784 35.1648C18.3466 36.0398 16.1307 36.4773 13.6307 36.4773ZM32.3679 36V31.4318L44.4872 19.5511C45.6463 18.3807 46.6122 17.3409 47.3849 16.4318C48.1577 15.5227 48.7372 14.642 49.1236 13.7898C49.5099 12.9375 49.7031 12.0284 49.7031 11.0625C49.7031 9.96023 49.4531 9.01704 48.9531 8.23295C48.4531 7.4375 47.7656 6.82386 46.8906 6.39205C46.0156 5.96023 45.0213 5.74432 43.9077 5.74432C42.7599 5.74432 41.7543 5.98295 40.8906 6.46023C40.027 6.92614 39.3565 7.59091 38.8793 8.45455C38.4134 9.31818 38.1804 10.3466 38.1804 11.5398H32.1634C32.1634 9.32386 32.669 7.39773 33.6804 5.76136C34.6918 4.125 36.0838 2.85795 37.8565 1.96023C39.6406 1.0625 41.6861 0.613635 43.9929 0.613635C46.3338 0.613635 48.3906 1.05114 50.1634 1.92614C51.9361 2.80114 53.3111 4 54.2884 5.52273C55.277 7.04545 55.7713 8.78409 55.7713 10.7386C55.7713 12.0455 55.5213 13.3295 55.0213 14.5909C54.5213 15.8523 53.6406 17.25 52.3793 18.7841C51.1293 20.3182 49.3736 22.1761 47.1122 24.358L41.0952 30.4773V30.7159H56.2997V36H32.3679ZM69.9872 16.5C68.544 16.5 67.2259 16.1477 66.0327 15.4432C64.8509 14.7386 63.9077 13.7955 63.2031 12.6136C62.4986 11.4205 62.1463 10.1023 62.1463 8.65909C62.1463 7.21591 62.4986 5.90341 63.2031 4.72159C63.9077 3.52841 64.8509 2.57954 66.0327 1.875C67.2259 1.17045 68.544 0.818181 69.9872 0.818181C71.4304 0.818181 72.7429 1.17045 73.9247 1.875C75.1179 2.57954 76.0668 3.52841 76.7713 4.72159C77.4759 5.90341 77.8281 7.21591 77.8281 8.65909C77.8281 10.1023 77.4759 11.4205 76.7713 12.6136C76.0668 13.7955 75.1179 14.7386 73.9247 15.4432C72.7429 16.1477 71.4304 16.5 69.9872 16.5ZM69.9872 13.0909C70.8054 13.0909 71.5497 12.892 72.2202 12.4943C72.8906 12.0966 73.4247 11.5625 73.8224 10.892C74.2202 10.2216 74.419 9.47727 74.419 8.65909C74.419 7.84091 74.2202 7.09659 73.8224 6.42614C73.4247 5.75568 72.8906 5.22159 72.2202 4.82386C71.5497 4.42614 70.8054 4.22727 69.9872 4.22727C69.169 4.22727 68.4247 4.42614 67.7543 4.82386C67.0838 5.22159 66.5497 5.75568 66.152 6.42614C65.7543 7.09659 65.5554 7.84091 65.5554 8.65909C65.5554 9.47727 65.7543 10.2216 66.152 10.892C66.5497 11.5625 67.0838 12.0966 67.7543 12.4943C68.4247 12.892 69.169 13.0909 69.9872 13.0909Z" fill="white"/>
</svg>
