<svg width="159" height="17" viewBox="0 0 159 17" fill="none" xmlns="http://www.w3.org/2000/svg">
<path d="M6.25977 6.52734H8.10547V0.955078H9.96875V15.791H8.10547V8.10938H6.25977V12.4688H0.0195312V2.39648H6.25977V6.52734ZM4.43164 10.9219V3.94336H1.84766V10.9219H4.43164ZM11.3574 0.673828H13.2383V16.5645H11.3574V0.673828ZM20.7357 4.48828C20.7298 5.4668 20.891 6.41895 21.2191 7.34473C21.5472 8.27051 22.0218 9.09375 22.6429 9.81445C23.264 10.5352 23.9935 11.0742 24.8314 11.4316L23.6713 12.9961C22.7748 12.5801 21.9925 11.9766 21.3246 11.1855C20.6625 10.3887 20.1439 9.45996 19.7689 8.39941C19.3939 9.54199 18.8636 10.5439 18.1781 11.4053C17.4984 12.2666 16.6869 12.9199 15.7435 13.3652L14.5482 11.7305C15.4095 11.3613 16.1566 10.8047 16.7894 10.0605C17.4222 9.31055 17.9056 8.45215 18.2396 7.48535C18.5736 6.51855 18.7435 5.51953 18.7494 4.48828V1.95703H20.7357V4.48828ZM25.974 0.673828H27.9427V16.582H25.974V0.673828ZM35.9148 5.19141C35.9148 6.06445 36.0788 6.92871 36.407 7.78418C36.7409 8.63379 37.2155 9.39844 37.8308 10.0781C38.4519 10.752 39.1784 11.2617 40.0105 11.6074L38.9382 13.1543C38.0183 12.7559 37.2185 12.167 36.5388 11.3877C35.8591 10.6025 35.3318 9.69141 34.9568 8.6543C34.5818 9.76758 34.0515 10.752 33.3659 11.6074C32.6804 12.4629 31.8835 13.1074 30.9753 13.541L29.8503 12.0117C30.6648 11.6367 31.3796 11.0859 31.9948 10.3594C32.6101 9.63281 33.0847 8.81543 33.4187 7.90723C33.7527 6.99902 33.9226 6.09375 33.9284 5.19141V3.85547H30.4304V2.23828H39.3952V3.85547H35.9148V5.19141ZM41.1706 0.673828H43.1394V16.5645H41.1706V0.673828ZM59.6192 9.35742H45.0997V7.88086H59.6192V9.35742ZM46.7872 10.3066H57.8614V13.9277H48.7559V15.0352H58.336V16.3887H46.8048V12.6621H55.9278V11.6777H46.7872V10.3066ZM46.8927 1.02539H57.8262V4.61133H48.879V5.64844H58.1075V6.98438H46.9454V3.3457H55.8751V2.37891H46.8927V1.02539ZM77.532 12.293H75.5809V6.47461H72.7684V4.89258H75.5809V0.691406H77.532V12.293ZM64.1902 8.86523C65.0105 8.5957 65.7137 8.20312 66.2996 7.6875C66.8855 7.16602 67.3279 6.57422 67.6268 5.91211C67.9256 5.24414 68.075 4.55273 68.075 3.83789V3.41602H64.7703V1.83398H73.3484V3.41602H70.0613V3.85547C70.0613 4.50586 70.2049 5.1416 70.492 5.7627C70.7791 6.37793 71.2039 6.93164 71.7664 7.42383C72.3289 7.91016 73.0086 8.28516 73.8055 8.54883L72.8211 10.1133C71.9539 9.81445 71.2039 9.38086 70.5711 8.8125C69.9441 8.23828 69.452 7.56445 69.0945 6.79102C68.7371 7.64648 68.2273 8.39062 67.5652 9.02344C66.9031 9.65625 66.1121 10.1309 65.1922 10.4473L64.1902 8.86523ZM67.1082 11.2734H69.0594V14.666H77.9363V16.248H67.1082V11.2734ZM87.6134 8.35547H93.9064V9.91992H79.422V8.35547H85.6798V6.28125H87.6134V8.35547ZM80.213 5.64844C81.2794 5.51367 82.2228 5.24414 83.0431 4.83984C83.8693 4.42969 84.508 3.93457 84.9591 3.35449C85.4162 2.77441 85.6447 2.16797 85.6447 1.53516V0.9375H87.631V1.53516C87.631 2.17969 87.8566 2.79199 88.3078 3.37207C88.7589 3.95215 89.3976 4.44434 90.2238 4.84863C91.05 5.24707 92.0021 5.51367 93.0802 5.64844L92.3244 7.17773C91.0236 6.97852 89.8752 6.59766 88.8791 6.03516C87.883 5.4668 87.133 4.7666 86.6291 3.93457C86.1193 4.7666 85.3664 5.4668 84.3703 6.03516C83.3742 6.59766 82.2228 6.97852 80.9162 7.17773L80.213 5.64844ZM81.1095 13.752C81.1095 13.1602 81.3293 12.6562 81.7687 12.2402C82.2082 11.8184 82.841 11.499 83.6671 11.2822C84.4992 11.0654 85.4923 10.957 86.6466 10.957C87.7892 10.957 88.7707 11.0654 89.591 11.2822C90.4171 11.499 91.05 11.8184 91.4894 12.2402C91.9289 12.6562 92.1486 13.1602 92.1486 13.752C92.1486 14.3496 91.9289 14.8564 91.4894 15.2725C91.0558 15.6885 90.4259 16.0049 89.5998 16.2217C88.7794 16.4385 87.7951 16.5469 86.6466 16.5469C85.4923 16.5469 84.4992 16.4385 83.6671 16.2217C82.841 16.0049 82.2082 15.6885 81.7687 15.2725C81.3293 14.8564 81.1095 14.3496 81.1095 13.752ZM83.0959 13.752C83.09 14.1855 83.3859 14.5137 83.9836 14.7363C84.5871 14.959 85.4748 15.0703 86.6466 15.0703C87.7951 15.0703 88.6711 14.959 89.2746 14.7363C89.8839 14.5137 90.1916 14.1855 90.1974 13.752C90.1916 13.3184 89.8869 12.9932 89.2834 12.7764C88.6798 12.5596 87.8009 12.4512 86.6466 12.4512C85.4748 12.4512 84.5871 12.5596 83.9836 12.7764C83.3859 12.9932 83.09 13.3184 83.0959 13.752ZM108.207 10.4824H106.343V6.45703H104.832V10.2891H103.003V0.919922H104.832V4.85742H106.343V0.691406H108.207V10.4824ZM94.5308 2.30859H97.5366V0.761719H99.4702V2.30859H102.441V3.85547H94.5308V2.30859ZM95.0933 7.21289C95.0874 6.66797 95.2281 6.1875 95.5152 5.77148C95.8081 5.35547 96.2154 5.0332 96.7368 4.80469C97.2583 4.57031 97.8472 4.45312 98.5034 4.45312C99.1714 4.45312 99.7661 4.57031 100.288 4.80469C100.815 5.0332 101.225 5.35547 101.518 5.77148C101.811 6.1875 101.96 6.66797 101.966 7.21289C101.96 7.75195 101.808 8.22949 101.509 8.64551C101.216 9.06152 100.809 9.38672 100.288 9.62109C99.7661 9.85547 99.1714 9.97266 98.5034 9.97266C97.8472 9.97266 97.2583 9.85547 96.7368 9.62109C96.2154 9.38672 95.8081 9.06152 95.5152 8.64551C95.2281 8.22949 95.0874 7.75195 95.0933 7.21289ZM95.5503 14.8945C96.2066 14.6953 96.7632 14.4111 97.2202 14.042C97.6831 13.6729 98.0318 13.2568 98.2661 12.7939C98.5005 12.3252 98.6148 11.8477 98.6089 11.3613V10.9746H100.543V11.3613C100.537 12.0117 100.692 12.6299 101.008 13.2158C101.331 13.7959 101.814 14.2764 102.459 14.6572C103.103 14.2588 103.592 13.7578 103.926 13.1543C104.266 12.5508 104.439 11.9531 104.445 11.3613V10.9746H106.378V11.3613C106.378 11.877 106.493 12.3691 106.721 12.8379C106.95 13.3066 107.293 13.7227 107.75 14.0859C108.212 14.4434 108.781 14.7129 109.455 14.8945L108.541 16.3711C107.785 16.1309 107.14 15.7793 106.607 15.3164C106.08 14.8535 105.675 14.3086 105.394 13.6816C105.125 14.3203 104.747 14.8857 104.26 15.3779C103.78 15.876 103.191 16.2539 102.494 16.5117C101.773 16.2598 101.169 15.8965 100.683 15.4219C100.197 14.9473 99.8218 14.3936 99.5581 13.7607C99.2593 14.3584 98.8491 14.8799 98.3277 15.3252C97.8062 15.7764 97.1851 16.125 96.4644 16.3711L95.5503 14.8945ZM96.8335 7.21289C96.8335 7.62305 96.9859 7.94824 97.2906 8.18848C97.5952 8.42871 97.9995 8.54883 98.5034 8.54883C99.0132 8.54883 99.4204 8.42871 99.7251 8.18848C100.036 7.94824 100.191 7.62305 100.191 7.21289C100.191 6.79102 100.036 6.46289 99.7251 6.22852C99.4204 5.99414 99.0132 5.87695 98.5034 5.87695C97.9995 5.87695 97.5952 5.99414 97.2906 6.22852C96.9859 6.46289 96.8335 6.79102 96.8335 7.21289ZM113.489 11.7129H120.485V10.2012H122.436V16.3711H111.556V10.2012H113.489V11.7129ZM109.815 7.70508H124.3V9.30469H109.815V7.70508ZM110.554 5.33203C111.632 5.19727 112.587 4.93652 113.419 4.5498C114.257 4.16309 114.904 3.69727 115.361 3.15234C115.818 2.60742 116.05 2.03906 116.056 1.44727V0.849609H118.059V1.44727C118.059 2.02148 118.288 2.58398 118.745 3.13477C119.208 3.68555 119.855 4.16016 120.687 4.55859C121.519 4.95117 122.466 5.20898 123.526 5.33203L122.841 6.87891C121.522 6.70312 120.356 6.33691 119.343 5.78027C118.335 5.22363 117.573 4.53809 117.058 3.72363C116.542 4.53809 115.777 5.22363 114.764 5.78027C113.75 6.33105 112.587 6.69727 111.274 6.87891L110.554 5.33203ZM120.485 14.8242V13.207H113.489V14.8242H120.485ZM138.266 16.5645H136.332V0.673828H138.266V16.5645ZM125.926 2.2207H127.86V10.9043C130.362 10.8633 132.711 10.623 134.908 10.1836L135.155 11.8184C132.682 12.334 130.063 12.5859 127.297 12.5742H125.926V2.2207ZM152.654 6.70312H155.097V8.30273H152.654V16.582H150.703V0.673828H152.654V6.70312ZM140.859 2.18555H148.295V3.76758H142.81V11.0625C144.099 11.0566 145.259 11.0156 146.291 10.9395C147.322 10.8633 148.365 10.7344 149.42 10.5527L149.648 12.2051C148.494 12.4043 147.357 12.5361 146.238 12.6006C145.119 12.665 143.765 12.6973 142.177 12.6973H140.859V2.18555ZM157.339 15.1406C157.093 15.1406 156.864 15.0791 156.653 14.9561C156.442 14.833 156.275 14.666 156.152 14.4551C156.029 14.2441 155.968 14.0156 155.968 13.7695C155.968 13.5293 156.029 13.3066 156.152 13.1016C156.275 12.8906 156.442 12.7236 156.653 12.6006C156.864 12.4775 157.093 12.416 157.339 12.416C157.579 12.416 157.802 12.4775 158.007 12.6006C158.218 12.7236 158.385 12.8906 158.508 13.1016C158.631 13.3066 158.692 13.5293 158.692 13.7695C158.692 14.0156 158.631 14.2441 158.508 14.4551C158.385 14.666 158.218 14.833 158.007 14.9561C157.802 15.0791 157.579 15.1406 157.339 15.1406Z" fill="#202020"/>
</svg>
